<?xml version="1.0" encoding="UTF-8"?>
<svg version="1.1" xmlns="http://www.w3.org/2000/svg" width="2000" height="2000">
<path d="M0 0 C1.32 0 2.64 0 4 0 C4 0.99 4 1.98 4 3 C5.32 3 6.64 3 8 3 C8 3.66 8 4.32 8 5 C9.65 5 11.3 5 13 5 C13 5.66 13 6.32 13 7 C14.32 7 15.64 7 17 7 C17 7.66 17 8.32 17 9 C17.7425 9.144375 18.485 9.28875 19.25 9.4375 C21.52027739 9.90187492 23.75759479 10.41863569 26 11 C26 11.99 26 12.98 26 14 C27.32 13.67 28.64 13.34 30 13 C30 13.99 30 14.98 30 16 C31.65 16 33.3 16 35 16 C35 16.66 35 17.32 35 18 C36.32 18 37.64 18 39 18 C39 18.66 39 19.32 39 20 C40.32 20 41.64 20 43 20 C43 20.66 43 21.32 43 22 C44.65 22 46.3 22 48 22 C48.33 22.66 48.66 23.32 49 24 C49.99 24 50.98 24 52 24 C52 24.99 52 25.98 52 27 C52.99 26.67 53.98 26.34 55 26 C55.33 26.99 55.66 27.98 56 29 C57.65 29 59.3 29 61 29 C61 29.66 61 30.32 61 31 C62.32 31 63.64 31 65 31 C65 31.66 65 32.32 65 33 C66.32 33 67.64 33 69 33 C69 33.66 69 34.32 69 35 C70.65 35 72.3 35 74 35 C74.33 35.66 74.66 36.32 75 37 C75.99 37 76.98 37 78 37 C78 37.99 78 38.98 78 40 C79.65 40 81.3 40 83 40 C83 40.66 83 41.32 83 42 C84.32 42 85.64 42 87 42 C87 42.66 87 43.32 87 44 C88.32 44 89.64 44 91 44 C91 44.66 91 45.32 91 46 C92.65 46 94.3 46 96 46 C96.33 46.66 96.66 47.32 97 48 C97.99 48 98.98 48 100 48 C100 48.99 100 49.98 100 51 C101.32 50.67 102.64 50.34 104 50 C104 50.99 104 51.98 104 53 C105.65 53 107.3 53 109 53 C109 53.66 109 54.32 109 55 C110.32 55 111.64 55 113 55 C113 55.66 113 56.32 113 57 C114.32 57 115.64 57 117 57 C117 57.66 117 58.32 117 59 C118.65 59 120.3 59 122 59 C122.33 59.66 122.66 60.32 123 61 C123.99 61 124.98 61 126 61 C126 61.99 126 62.98 126 64 C127.32 64 128.64 64 130 64 C130 64.66 130 65.32 130 66 C131.65 66 133.3 66 135 66 C135 66.66 135 67.32 135 68 C136.32 68 137.64 68 139 68 C139 68.66 139 69.32 139 70 C139.7425 70.144375 140.485 70.28875 141.25 70.4375 C143.52027739 70.90187492 145.75759479 71.41863569 148 72 C148 72.99 148 73.98 148 75 C149.32 74.67 150.64 74.34 152 74 C152 74.99 152 75.98 152 77 C153.65 77 155.3 77 157 77 C157 77.66 157 78.32 157 79 C158.32 79 159.64 79 161 79 C161 79.66 161 80.32 161 81 C162.32 81 163.64 81 165 81 C165 81.66 165 82.32 165 83 C166.65 83 168.3 83 170 83 C170.33 83.66 170.66 84.32 171 85 C171.99 85 172.98 85 174 85 C174 85.99 174 86.98 174 88 C175.32 88 176.64 88 178 88 C178 88.66 178 89.32 178 90 C179.65 90 181.3 90 183 90 C183 90.66 183 91.32 183 92 C184.32 92 185.64 92 187 92 C187 92.66 187 93.32 187 94 C188.32 94 189.64 94 191 94 C191 94.66 191 95.32 191 96 C192.65 96 194.3 96 196 96 C196.33 96.66 196.66 97.32 197 98 C197.99 98 198.98 98 200 98 C200 98.99 200 99.98 200 101 C201.65 101 203.3 101 205 101 C205 101.66 205 102.32 205 103 C206.32 103 207.64 103 209 103 C209 103.66 209 104.32 209 105 C210.32 105 211.64 105 213 105 C213 105.66 213 106.32 213 107 C214.65 107 216.3 107 218 107 C218.33 107.66 218.66 108.32 219 109 C219.99 109 220.98 109 222 109 C222 109.99 222 110.98 222 112 C223.32 111.67 224.64 111.34 226 111 C226 111.99 226 112.98 226 114 C227.65 114 229.3 114 231 114 C231 114.66 231 115.32 231 116 C232.32 116 233.64 116 235 116 C235 116.66 235 117.32 235 118 C236.32 118 237.64 118 239 118 C239 118.66 239 119.32 239 120 C240.65 120 242.3 120 244 120 C244.33 120.66 244.66 121.32 245 122 C245.99 122 246.98 122 248 122 C248 122.99 248 123.98 248 125 C249.32 125 250.64 125 252 125 C252 125.66 252 126.32 252 127 C253.65 127 255.3 127 257 127 C257 127.66 257 128.32 257 129 C258.32 129 259.64 129 261 129 C261 129.66 261 130.32 261 131 C261.7425 131.144375 262.485 131.28875 263.25 131.4375 C265.52027739 131.90187492 267.75759479 132.41863569 270 133 C270 133.99 270 134.98 270 136 C271.98 135.505 271.98 135.505 274 135 C274 135.99 274 136.98 274 138 C275.65 138 277.3 138 279 138 C279 138.66 279 139.32 279 140 C280.98 140 282.96 140 285 140 C285 140.66 285 141.32 285 142 C285.66 142 286.32 142 287 142 C287 142.66 287 143.32 287 144 C288.65 144 290.3 144 292 144 C292.33 144.66 292.66 145.32 293 146 C293.99 146 294.98 146 296 146 C296 146.99 296 147.98 296 149 C298.31 149 300.62 149 303 149 C303 149.66 303 150.32 303 151 C303.66 151 304.32 151 305 151 C305 151.66 305 152.32 305 153 C306.32 153 307.64 153 309 153 C309 153.66 309 154.32 309 155 C310.32 155 311.64 155 313 155 C313 155.66 313 156.32 313 157 C314.65 157 316.3 157 318 157 C318 157.99 318 158.98 318 160 C319.98 159.505 319.98 159.505 322 159 C322 159.99 322 160.98 322 162 C323.65 162 325.3 162 327 162 C327 162.66 327 163.32 327 164 C328.32 164 329.64 164 331 164 C331 164.66 331 165.32 331 166 C332.98 166 334.96 166 337 166 C337 166.66 337 167.32 337 168 C337.99 168 338.98 168 340 168 C340.33 168.66 340.66 169.32 341 170 C342.65 170 344.3 170 346 170 C346 170.99 346 171.98 346 173 C346.66 173 347.32 173 348 173 C348 173.66 348 174.32 348 175 C350.31 175 352.62 175 355 175 C355 175.66 355 176.32 355 177 C355.66 177 356.32 177 357 177 C357 177.66 357 178.32 357 179 C358.093125 178.9175 359.18625 178.835 360.3125 178.75 C361.529375 178.8325 362.74625 178.915 364 179 C365.625 181 365.625 181 367 183 C369.62625139 183.33425735 369.62625139 183.33425735 372 183 C372 183.99 372 184.98 372 186 C372.66 186 373.32 186 374 186 C374 186.66 374 187.32 374 188 C375.65 188 377.3 188 379 188 C379 188.66 379 189.32 379 190 C380.32 190 381.64 190 383 190 C383 190.66 383 191.32 383 192 C385.31 192 387.62 192 390 192 C390 192.99 390 193.98 390 195 C390.66 195 391.32 195 392 195 C392 195.66 392 196.32 392 197 C393.98 196.67 395.96 196.34 398 196 C398 196.99 398 197.98 398 199 C398.99 199 399.98 199 401 199 C401 199.66 401 200.32 401 201 C402.98 201 404.96 201 407 201 C407 201.66 407 202.32 407 203 C407.66 203 408.32 203 409 203 C409 203.66 409 204.32 409 205 C411.31 205 413.62 205 416 205 C416 205.99 416 206.98 416 208 C416.66 208 417.32 208 418 208 C418 208.66 418 209.32 418 210 C420.31 210 422.62 210 425 210 C425 210.66 425 211.32 425 212 C425.66 212 426.32 212 427 212 C427 212.66 427 213.32 427 214 C428.98 214 430.96 214 433 214 C433 214.66 433 215.32 433 216 C433.66 216 434.32 216 435 216 C435 216.66 435 217.32 435 218 C437.31 218 439.62 218 442 218 C442 218.99 442 219.98 442 221 C442.66 221 443.32 221 444 221 C444 221.66 444 222.32 444 223 C446.31 223 448.62 223 451 223 C451 223.66 451 224.32 451 225 C451.66 225 452.32 225 453 225 C453 225.66 453 226.32 453 227 C453.94875 226.95875 454.8975 226.9175 455.875 226.875 C459.84110075 227.03364403 460.29199437 228.29199437 463 231 C465.58354218 231.16687448 465.58354218 231.16687448 468 231 C468 231.99 468 232.98 468 234 C468.66 234 469.32 234 470 234 C470 234.66 470 235.32 470 236 C472.31 236 474.62 236 477 236 C477 236.66 477 237.32 477 238 C477.66 238 478.32 238 479 238 C479 238.66 479 239.32 479 240 C480.093125 239.9175 481.18625 239.835 482.3125 239.75 C483.529375 239.8325 484.74625 239.915 486 240 C487.625 242 487.625 242 489 244 C491.62625139 244.33425735 491.62625139 244.33425735 494 244 C494 244.99 494 245.98 494 247 C494.66 247 495.32 247 496 247 C496 247.66 496 248.32 496 249 C498.31 249 500.62 249 503 249 C503 249.66 503 250.32 503 251 C503.66 251 504.32 251 505 251 C505 251.66 505 252.32 505 253 C507.31 253 509.62 253 512 253 C512 253.99 512 254.98 512 256 C512.66 256 513.32 256 514 256 C514 256.66 514 257.32 514 258 C515.98 257.505 515.98 257.505 518 257 C520.70141728 263.24702746 520.79383772 270.16041757 519.42578125 276.77734375 C519.28527344 277.51082031 519.14476562 278.24429687 519 279 C519.33 279.33 519.66 279.66 520 280 C520.09739464 281.75670708 520.12371452 283.51737539 520.12304783 285.27678013 C520.12503888 286.42829172 520.12702993 287.57980331 520.12908131 288.76620919 C520.12616847 290.04730928 520.12325563 291.32840938 520.12025452 292.64833069 C520.1206901 294.01037807 520.12156477 295.37242537 520.12284368 296.73447222 C520.1250912 300.49474282 520.12106388 304.25498522 520.11606562 308.01525223 C520.11176496 312.06367058 520.11320727 316.11208721 520.1139679 320.1605072 C520.11449338 327.1804702 520.11134407 334.20042393 520.10573006 341.2203846 C520.0976183 351.37018879 520.09500017 361.51998848 520.09374207 371.66979557 C520.09155103 388.13541638 520.08488956 404.60103226 520.07543945 421.06665039 C520.06626666 437.06567358 520.05918518 453.06469542 520.05493164 469.0637207 C520.05466892 470.04916652 520.05440619 471.03461234 520.05413551 472.04992015 C520.05283051 476.99339302 520.0515668 481.9368659 520.05032361 486.88033879 C520.0399494 527.9202293 520.0223297 568.96011437 520 610 C519.34 610 518.68 610 518 610 C518 614.62 518 619.24 518 624 C518.66 624 519.32 624 520 624 C519.83761904 624.55469121 519.67523808 625.10938242 519.50793648 625.68088245 C518.95038546 628.22652822 518.8741145 630.49997682 518.87301636 633.10588074 C518.87019653 634.13646103 518.86737671 635.16704132 518.86447144 636.22885132 C518.86750778 637.91610825 518.86750778 637.91610825 518.87060547 639.63745117 C518.86797699 641.4208213 518.86797699 641.4208213 518.86529541 643.24021912 C518.86164943 646.49615766 518.86250218 649.75205553 518.8656745 653.00799346 C518.86820647 656.41347702 518.86585838 659.81895786 518.86428833 663.22444153 C518.86246983 668.93991585 518.86486535 674.65537725 518.86962891 680.37084961 C518.87507872 686.98628529 518.87330238 693.60169018 518.8678025 700.21712512 C518.86327158 705.89361021 518.86262048 711.570086 518.86524117 717.24657232 C518.86680306 720.63859615 518.86699996 724.03060549 518.86370468 727.4226284 C518.86118034 731.19868463 518.86501529 734.9746807 518.87060547 738.75073242 C518.86858124 739.88164307 518.86655701 741.01255371 518.86447144 742.17773438 C518.86870117 743.7109156 518.86870117 743.7109156 518.87301636 745.27507019 C518.87339338 746.16862308 518.87377041 747.06217596 518.87415886 747.98280621 C518.77648487 749.99705423 518.77648487 749.99705423 520 751 C520.08631874 752.34267413 520.10706473 753.68974322 520.09765625 755.03515625 C520.09282227 756.24848633 520.09282227 756.24848633 520.08789062 757.48632812 C520.07951172 758.33646484 520.07113281 759.18660156 520.0625 760.0625 C520.05798828 760.91650391 520.05347656 761.77050781 520.04882812 762.65039062 C520.03700373 764.76695663 520.01906769 766.88348685 520 769 C519.34 769 518.68 769 518 769 C518 772.96 518 776.92 518 781 C518.66 781 519.32 781 520 781 C520 906.4 520 1031.8 520 1161 C519.34 1161 518.68 1161 518 1161 C518.14017826 1163.97953359 518.28686342 1166.95849304 518.4375 1169.9375 C518.47681641 1170.78763672 518.51613281 1171.63777344 518.55664062 1172.51367188 C518.59853516 1173.32255859 518.64042969 1174.13144531 518.68359375 1174.96484375 C518.72025146 1175.7137085 518.75690918 1176.46257324 518.79467773 1177.23413086 C518.81771063 1179.02461326 518.81771063 1179.02461326 520 1180 C520.04063832 1181.66617115 520.042721 1183.33388095 520 1185 C519.34 1185 518.68 1185 518 1185 C517.855625 1185.7425 517.71125 1186.485 517.5625 1187.25 C517.09812508 1189.52027739 516.58136431 1191.75759479 516 1194 C514.68 1194 513.36 1194 512 1194 C511.67 1194.99 511.34 1195.98 511 1197 C509.68 1196.67 508.36 1196.34 507 1196 C507 1196.99 507 1197.98 507 1199 C505.68 1199 504.36 1199 503 1199 C503 1199.66 503 1200.32 503 1201 C501.68 1201 500.36 1201 499 1201 C499 1201.66 499 1202.32 499 1203 C497.35 1203 495.7 1203 494 1203 C494 1203.66 494 1204.32 494 1205 C492.68 1205 491.36 1205 490 1205 C490 1205.66 490 1206.32 490 1207 C488.68 1207 487.36 1207 486 1207 C485.67 1207.99 485.34 1208.98 485 1210 C483.68 1209.67 482.36 1209.34 481 1209 C481 1209.99 481 1210.98 481 1212 C479.68 1212 478.36 1212 477 1212 C477 1212.66 477 1213.32 477 1214 C473.62902617 1215.49821059 471.79557881 1216 468 1216 C468 1216.66 468 1217.32 468 1218 C466.68 1218 465.36 1218 464 1218 C464 1218.66 464 1219.32 464 1220 C463.34 1220 462.68 1220 462 1220 C461.67 1220.99 461.34 1221.98 461 1223 C460.01 1223 459.02 1223 458 1223 C457.67 1223.66 457.34 1224.32 457 1225 C455.68 1225 454.36 1225 453 1225 C453 1225.66 453 1226.32 453 1227 C451.68 1227 450.36 1227 449 1227 C449 1227.66 449 1228.32 449 1229 C448.01 1229 447.02 1229 446 1229 C446 1229.66 446 1230.32 446 1231 C444.68 1231 443.36 1231 442 1231 C441.67 1231.99 441.34 1232.98 441 1234 C440.01 1233.67 439.02 1233.34 438 1233 C438 1233.99 438 1234.98 438 1236 C436.35 1236 434.7 1236 433 1236 C433 1236.66 433 1237.32 433 1238 C431.68 1238 430.36 1238 429 1238 C429 1238.66 429 1239.32 429 1240 C427.68 1240 426.36 1240 425 1240 C425 1240.66 425 1241.32 425 1242 C423.35 1242 421.7 1242 420 1242 C420 1242.66 420 1243.32 420 1244 C418.68 1244 417.36 1244 416 1244 C416 1244.66 416 1245.32 416 1246 C415.34 1246 414.68 1246 414 1246 C414 1246.99 414 1247.98 414 1249 C411.69 1249 409.38 1249 407 1249 C407 1249.66 407 1250.32 407 1251 C405.68 1251 404.36 1251 403 1251 C403 1251.66 403 1252.32 403 1253 C401.35 1253 399.7 1253 398 1253 C398 1253.66 398 1254.32 398 1255 C397.34 1255 396.68 1255 396 1255 C395.67 1255.99 395.34 1256.98 395 1258 C394.01 1257.67 393.02 1257.34 392 1257 C392 1257.99 392 1258.98 392 1260 C389.01758453 1260.77321882 386.02419525 1261.41196203 383 1262 C383 1262.66 383 1263.32 383 1264 C382.34 1264 381.68 1264 381 1264 C381 1264.66 381 1265.32 381 1266 C378.69 1266 376.38 1266 374 1266 C374 1266.66 374 1267.32 374 1268 C373.34 1268 372.68 1268 372 1268 C372 1268.99 372 1269.98 372 1271 C370.02 1270.67 368.04 1270.34 366 1270 C365.67 1270.99 365.34 1271.98 365 1273 C364.67 1273.66 364.34 1274.32 364 1275 C362.35 1275 360.7 1275 359 1275 C359 1275.66 359 1276.32 359 1277 C357.68 1277 356.36 1277 355 1277 C355 1277.66 355 1278.32 355 1279 C353.68 1279 352.36 1279 351 1279 C351 1279.66 351 1280.32 351 1281 C349.35 1281 347.7 1281 346 1281 C346 1281.99 346 1282.98 346 1284 C345.01 1284 344.02 1284 343 1284 C342.5875 1284.66 342.175 1285.32 341.75 1286 C340 1288 340 1288 336.3125 1288.25 C335.219375 1288.1675 334.12625 1288.085 333 1288 C333 1288.66 333 1289.32 333 1290 C332.34 1290 331.68 1290 331 1290 C331 1290.66 331 1291.32 331 1292 C329.68 1292 328.36 1292 327 1292 C326.67 1292.99 326.34 1293.98 326 1295 C324.68 1294.67 323.36 1294.34 322 1294 C322 1294.99 322 1295.98 322 1297 C321.01 1297 320.02 1297 319 1297 C318.67 1297.66 318.34 1298.32 318 1299 C316.35 1299 314.7 1299 313 1299 C313 1299.66 313 1300.32 313 1301 C311.68 1301 310.36 1301 309 1301 C309 1301.66 309 1302.32 309 1303 C308.34 1303 307.68 1303 307 1303 C307 1303.66 307 1304.32 307 1305 C304.69 1305 302.38 1305 300 1305 C300 1305.66 300 1306.32 300 1307 C299.34 1307 298.68 1307 298 1307 C298 1307.99 298 1308.98 298 1310 C296.02 1310 294.04 1310 292 1310 C292 1310.66 292 1311.32 292 1312 C291.01 1312 290.02 1312 289 1312 C289 1312.66 289 1313.32 289 1314 C287.68 1314 286.36 1314 285 1314 C285 1314.66 285 1315.32 285 1316 C283.68 1316 282.36 1316 281 1316 C280.67 1316.99 280.34 1317.98 280 1319 C278.68 1318.67 277.36 1318.34 276 1318 C275.34 1319.65 274.68 1321.3 274 1323 C272.02 1323 270.04 1323 268 1323 C268 1323.66 268 1324.32 268 1325 C267.34 1325 266.68 1325 266 1325 C266 1325.66 266 1326.32 266 1327 C264.35 1327 262.7 1327 261 1327 C261 1026.37 261 725.74 261 416 C259.68 416 258.36 416 257 416 C257 415.34 257 414.68 257 414 C256.2575 413.855625 255.515 413.71125 254.75 413.5625 C252.47972261 413.09812508 250.24240521 412.58136431 248 412 C248 411.34 248 410.68 248 410 C246.68 410 245.36 410 244 410 C244 409.34 244 408.68 244 408 C243.2575 407.855625 242.515 407.71125 241.75 407.5625 C239.47972261 407.09812508 237.24240521 406.58136431 235 406 C235 405.01 235 404.02 235 403 C234.34 403 233.68 403 233 403 C233 402.34 233 401.68 233 401 C230.69 401 228.38 401 226 401 C226 400.34 226 399.68 226 399 C224.68 399 223.36 399 222 399 C222 398.34 222 397.68 222 397 C220.68 397 219.36 397 218 397 C217.34 396.34 216.68 395.68 216 395 C215.01 395 214.02 395 213 395 C213 394.01 213 393.02 213 392 C211.68 392.33 210.36 392.66 209 393 C209 392.01 209 391.02 209 390 C208.34 390 207.68 390 207 390 C207 389.34 207 388.68 207 388 C204.69 388 202.38 388 200 388 C200 387.34 200 386.68 200 386 C198.68 386 197.36 386 196 386 C196 385.34 196 384.68 196 384 C195.2575 383.855625 194.515 383.71125 193.75 383.5625 C191.47972261 383.09812508 189.24240521 382.58136431 187 382 C187 381.01 187 380.02 187 379 C185.68 379 184.36 379 183 379 C183 378.34 183 377.68 183 377 C181.35 377 179.7 377 178 377 C178 376.34 178 375.68 178 375 C176.68 375 175.36 375 174 375 C173.34 374.01 172.68 373.02 172 372 C168.43230448 371.26393501 168.43230448 371.26393501 165 371 C165 370.01 165 369.02 165 368 C164.34 368 163.68 368 163 368 C163 367.34 163 366.68 163 366 C161.02 366 159.04 366 157 366 C157 365.34 157 364.68 157 364 C156.01 364 155.02 364 154 364 C154 363.34 154 362.68 154 362 C153.0925 362.0825 152.185 362.165 151.25 362.25 C147.24531998 361.94194769 146.69801965 360.78505254 144 358 C141.33165034 357.66501699 141.33165034 357.66501699 139 358 C139 357.01 139 356.02 139 355 C138.34 355 137.68 355 137 355 C137 354.34 137 353.68 137 353 C136.113125 353.04125 135.22625 353.0825 134.3125 353.125 C131.02722987 353.00102754 128.94550705 352.38612096 126 351 C126 350.34 126 349.68 126 349 C124.68 349 123.36 349 122 349 C122 348.34 122 347.68 122 347 C121.2575 346.855625 120.515 346.71125 119.75 346.5625 C117.47972261 346.09812508 115.24240521 345.58136431 113 345 C113 344.01 113 343.02 113 342 C112.34 342 111.68 342 111 342 C111 341.34 111 340.68 111 340 C108.69 340 106.38 340 104 340 C104 339.34 104 338.68 104 338 C103.34 338 102.68 338 102 338 C102 337.34 102 336.68 102 336 C100.6078125 336.0928125 100.6078125 336.0928125 99.1875 336.1875 C96 336 96 336 94.125 334.625 C93 333 93 333 93 331 C91.35 331.33 89.7 331.66 88 332 C87.67 331.01 87.34 330.02 87 329 C86.34 329 85.68 329 85 329 C85 328.34 85 327.68 85 327 C82.69 327 80.38 327 78 327 C78 326.34 78 325.68 78 325 C77.34 325 76.68 325 76 325 C76 324.34 76 323.68 76 323 C74.02 323 72.04 323 70 323 C69.67 322.01 69.34 321.02 69 320 C68.34 320 67.68 320 67 320 C67 319.34 67 318.68 67 318 C65.02 318 63.04 318 61 318 C61 317.34 61 316.68 61 316 C59.35 316 57.7 316 56 316 C56 315.34 56 314.68 56 314 C54.68 314 53.36 314 52 314 C52 313.34 52 312.68 52 312 C50.68 312 49.36 312 48 312 C48 311.34 48 310.68 48 310 C46.35 310 44.7 310 43 310 C43 309.01 43 308.02 43 307 C42.34 307 41.68 307 41 307 C41 306.34 41 305.68 41 305 C39.02 305 37.04 305 35 305 C35 304.34 35 303.68 35 303 C34.01 303 33.02 303 32 303 C32 302.34 32 301.68 32 301 C31.0925 301.0825 30.185 301.165 29.25 301.25 C25.24531998 300.94194769 24.69801965 299.78505254 22 297 C19.33165034 296.66501699 19.33165034 296.66501699 17 297 C17 296.01 17 295.02 17 294 C16.34 294 15.68 294 15 294 C15 293.34 15 292.68 15 292 C12.69 292 10.38 292 8 292 C8 291.34 8 290.68 8 290 C7.34 290 6.68 290 6 290 C6 289.34 6 288.68 6 288 C4.02 288 2.04 288 0 288 C0 288.66 0 289.32 0 290 C-0.66 290 -1.32 290 -2 290 C-2 290.66 -2 291.32 -2 292 C-4.31 292 -6.62 292 -9 292 C-9 292.66 -9 293.32 -9 294 C-9.66 294 -10.32 294 -11 294 C-11 294.99 -11 295.98 -11 297 C-11.928125 296.9175 -12.85625 296.835 -13.8125 296.75 C-14.864375 296.8325 -15.91625 296.915 -17 297 C-17.495 297.66 -17.99 298.32 -18.5 299 C-18.995 299.66 -19.49 300.32 -20 301 C-23.1875 301.25 -23.1875 301.25 -26 301 C-26 301.66 -26 302.32 -26 303 C-27.65 303 -29.3 303 -31 303 C-31 303.66 -31 304.32 -31 305 C-32.32 305 -33.64 305 -35 305 C-35.33 305.99 -35.66 306.98 -36 308 C-36.99 308 -37.98 308 -39 308 C-39.33 308.66 -39.66 309.32 -40 310 C-41.32 310 -42.64 310 -44 310 C-44 310.66 -44 311.32 -44 312 C-45.32 312 -46.64 312 -48 312 C-48 312.66 -48 313.32 -48 314 C-49.65 314 -51.3 314 -53 314 C-53 314.66 -53 315.32 -53 316 C-53.66 316 -54.32 316 -55 316 C-55 316.66 -55 317.32 -55 318 C-56.98 318 -58.96 318 -61 318 C-61.33 318.99 -61.66 319.98 -62 321 C-62.99 321 -63.98 321 -65 321 C-65.33 321.66 -65.66 322.32 -66 323 C-67.32 323 -68.64 323 -70 323 C-70 323.66 -70 324.32 -70 325 C-71.32 325 -72.64 325 -74 325 C-74 325.66 -74 326.32 -74 327 C-75.65 327 -77.3 327 -79 327 C-79 327.66 -79 328.32 -79 329 C-80.32 329 -81.64 329 -83 329 C-83.33 329.99 -83.66 330.98 -84 332 C-84.99 331.67 -85.98 331.34 -87 331 C-87.33 331.99 -87.66 332.98 -88 334 C-89.32 334 -90.64 334 -92 334 C-92 334.66 -92 335.32 -92 336 C-93.32 336 -94.64 336 -96 336 C-96 336.66 -96 337.32 -96 338 C-99.37097383 339.49821059 -101.20442119 340 -105 340 C-105 340.66 -105 341.32 -105 342 C-106.32 342 -107.64 342 -109 342 C-109.33 342.99 -109.66 343.98 -110 345 C-111.33076989 345.34342449 -112.66431979 345.67619874 -114 346 C-114.66 346.99 -115.32 347.98 -116 349 C-119.125 349.1875 -119.125 349.1875 -122 349 C-122 349.66 -122 350.32 -122 351 C-122.66 351 -123.32 351 -124 351 C-124 351.66 -124 352.32 -124 353 C-126.31 353 -128.62 353 -131 353 C-131 353.66 -131 354.32 -131 355 C-132.32 355 -133.64 355 -135 355 C-135.33 355.99 -135.66 356.98 -136 358 C-136.99 358 -137.98 358 -139 358 C-139.33 358.66 -139.66 359.32 -140 360 C-141.32 360 -142.64 360 -144 360 C-144 360.66 -144 361.32 -144 362 C-145.32 362 -146.64 362 -148 362 C-148 362.66 -148 363.32 -148 364 C-149.65 364 -151.3 364 -153 364 C-153 364.66 -153 365.32 -153 366 C-154.32 366 -155.64 366 -157 366 C-157.33 366.99 -157.66 367.98 -158 369 C-158.99 369 -159.98 369 -161 369 C-161.33 369.66 -161.66 370.32 -162 371 C-163.32 371 -164.64 371 -166 371 C-166 371.66 -166 372.32 -166 373 C-167.32 373 -168.64 373 -170 373 C-170 373.66 -170 374.32 -170 375 C-171.65 375 -173.3 375 -175 375 C-175 375.66 -175 376.32 -175 377 C-176.32 377 -177.64 377 -179 377 C-179 377.66 -179 378.32 -179 379 C-180.32 379 -181.64 379 -183 379 C-183.33 379.99 -183.66 380.98 -184 382 C-184.99 382 -185.98 382 -187 382 C-187.33 382.66 -187.66 383.32 -188 384 C-189.32 384 -190.64 384 -192 384 C-192 384.66 -192 385.32 -192 386 C-193.32 386 -194.64 386 -196 386 C-196 386.66 -196 387.32 -196 388 C-197.65 388 -199.3 388 -201 388 C-201 388.66 -201 389.32 -201 390 C-202.32 390 -203.64 390 -205 390 C-205.33 390.99 -205.66 391.98 -206 393 C-208.98459129 394.95542188 -210.26414791 395 -214 395 C-214 395.66 -214 396.32 -214 397 C-215.32 397 -216.64 397 -218 397 C-218 397.66 -218 398.32 -218 399 C-219.65 399 -221.3 399 -223 399 C-223 399.66 -223 400.32 -223 401 C-224.32 401 -225.64 401 -227 401 C-227 401.66 -227 402.32 -227 403 C-228.32 403 -229.64 403 -231 403 C-231 403.99 -231 404.98 -231 406 C-232.32 406 -233.64 406 -235 406 C-235.33 406.66 -235.66 407.32 -236 408 C-237.32 408 -238.64 408 -240 408 C-240 408.66 -240 409.32 -240 410 C-241.32 410 -242.64 410 -244 410 C-244 410.66 -244 411.32 -244 412 C-245.65 412 -247.3 412 -249 412 C-249 412.66 -249 413.32 -249 414 C-250.32 414 -251.64 414 -253 414 C-253 414.66 -253 415.32 -253 416 C-253.66 416 -254.32 416 -255 416 C-255 416.66 -255 417.32 -255 418 C-255.66 418 -256.32 418 -257 418 C-257 420.64 -257 423.28 -257 426 C-256.34 426 -255.68 426 -255 426 C-255 715.41 -255 1004.82 -255 1303 C-255.66 1303 -256.32 1303 -257 1303 C-257 1304.65 -257 1306.3 -257 1308 C-256.34 1308 -255.68 1308 -255 1308 C-255 1308.99 -255 1309.98 -255 1311 C-255.66 1311 -256.32 1311 -257 1311 C-257 1313.64 -257 1316.28 -257 1319 C-256.34 1319 -255.68 1319 -255 1319 C-255 1320.98 -255 1322.96 -255 1325 C-257.97 1325 -260.94 1325 -264 1325 C-264 1324.34 -264 1323.68 -264 1323 C-265.32 1323 -266.64 1323 -268 1323 C-268 1322.34 -268 1321.68 -268 1321 C-269.65 1320.67 -271.3 1320.34 -273 1320 C-273 1319.34 -273 1318.68 -273 1318 C-273.99 1318.33 -274.98 1318.66 -276 1319 C-276.33 1318.01 -276.66 1317.02 -277 1316 C-277.66 1316 -278.32 1316 -279 1316 C-279 1315.34 -279 1314.68 -279 1314 C-281.31 1314 -283.62 1314 -286 1314 C-286 1313.34 -286 1312.68 -286 1312 C-286.66 1312 -287.32 1312 -288 1312 C-288 1311.34 -288 1310.68 -288 1310 C-289.32 1310 -290.64 1310 -292 1310 C-292.66 1309.34 -293.32 1308.68 -294 1308 C-294.99 1307.67 -295.98 1307.34 -297 1307 C-297 1306.34 -297 1305.68 -297 1305 C-298.98 1305 -300.96 1305 -303 1305 C-303 1304.34 -303 1303.68 -303 1303 C-303.66 1303 -304.32 1303 -305 1303 C-305 1302.34 -305 1301.68 -305 1301 C-306.65 1301 -308.3 1301 -310 1301 C-310 1300.34 -310 1299.68 -310 1299 C-310.66 1299 -311.32 1299 -312 1299 C-312.33 1298.34 -312.66 1297.68 -313 1297 C-314.65 1297 -316.3 1297 -318 1297 C-318 1296.01 -318 1295.02 -318 1294 C-318.99 1294 -319.98 1294 -321 1294 C-321 1293.34 -321 1292.68 -321 1292 C-322.32 1292 -323.64 1292 -325 1292 C-325 1291.34 -325 1290.68 -325 1290 C-326.32 1290 -327.64 1290 -329 1290 C-329 1289.34 -329 1288.68 -329 1288 C-330.65 1288 -332.3 1288 -334 1288 C-334 1287.34 -334 1286.68 -334 1286 C-335.32 1286 -336.64 1286 -338 1286 C-338.33 1285.34 -338.66 1284.68 -339 1284 C-339.99 1284 -340.98 1284 -342 1284 C-342 1283.01 -342 1282.02 -342 1281 C-344.97 1280.34 -347.94 1279.68 -351 1279 C-351 1278.34 -351 1277.68 -351 1277 C-351.66 1277 -352.32 1277 -353 1277 C-353 1276.34 -353 1275.68 -353 1275 C-354.65 1275 -356.3 1275 -358 1275 C-358.33 1274.34 -358.66 1273.68 -359 1273 C-359.99 1273 -360.98 1273 -362 1273 C-362 1272.01 -362 1271.02 -362 1270 C-363.32 1270.33 -364.64 1270.66 -366 1271 C-366 1270.01 -366 1269.02 -366 1268 C-367.65 1268 -369.3 1268 -371 1268 C-371 1267.34 -371 1266.68 -371 1266 C-372.32 1266 -373.64 1266 -375 1266 C-375 1265.34 -375 1264.68 -375 1264 C-376.32 1264 -377.64 1264 -379 1264 C-379 1263.34 -379 1262.68 -379 1262 C-380.65 1262 -382.3 1262 -384 1262 C-384 1261.01 -384 1260.02 -384 1259 C-384.66 1259 -385.32 1259 -386 1259 C-386 1258.34 -386 1257.68 -386 1257 C-386.99 1257.33 -387.98 1257.66 -389 1258 C-389.495 1256.515 -389.495 1256.515 -390 1255 C-391.65 1255 -393.3 1255 -395 1255 C-395 1254.34 -395 1253.68 -395 1253 C-396.32 1253 -397.64 1253 -399 1253 C-399 1252.34 -399 1251.68 -399 1251 C-400.32 1251 -401.64 1251 -403 1251 C-403 1250.34 -403 1249.68 -403 1249 C-404.65 1249 -406.3 1249 -408 1249 C-408.33 1248.34 -408.66 1247.68 -409 1247 C-409.99 1247 -410.98 1247 -412 1247 C-412 1246.01 -412 1245.02 -412 1244 C-413.32 1244 -414.64 1244 -416 1244 C-416 1243.34 -416 1242.68 -416 1242 C-417.65 1242 -419.3 1242 -421 1242 C-421 1241.34 -421 1240.68 -421 1240 C-421.66 1240 -422.32 1240 -423 1240 C-423 1239.34 -423 1238.68 -423 1238 C-424.32 1238 -425.64 1238 -427 1238 C-427 1237.34 -427 1236.68 -427 1236 C-428.65 1236 -430.3 1236 -432 1236 C-432 1235.01 -432 1234.02 -432 1233 C-432.99 1233.33 -433.98 1233.66 -435 1234 C-435.495 1232.515 -435.495 1232.515 -436 1231 C-437.32 1231 -438.64 1231 -440 1231 C-440 1230.34 -440 1229.68 -440 1229 C-441.65 1229 -443.3 1229 -445 1229 C-445 1228.34 -445 1227.68 -445 1227 C-446.32 1227 -447.64 1227 -449 1227 C-449 1226.34 -449 1225.68 -449 1225 C-450.32 1225 -451.64 1225 -453 1225 C-453.66 1224.34 -454.32 1223.68 -455 1223 C-455.99 1223 -456.98 1223 -458 1223 C-458 1222.01 -458 1221.02 -458 1220 C-458.66 1220 -459.32 1220 -460 1220 C-460 1219.34 -460 1218.68 -460 1218 C-461.3921875 1218.061875 -461.3921875 1218.061875 -462.8125 1218.125 C-466 1218 -466 1218 -469 1216 C-469 1215.34 -469 1214.68 -469 1214 C-470.32 1214 -471.64 1214 -473 1214 C-473 1213.34 -473 1212.68 -473 1212 C-474.32 1212 -475.64 1212 -477 1212 C-477.66 1211.34 -478.32 1210.68 -479 1210 C-479.99 1209.67 -480.98 1209.34 -482 1209 C-482 1208.34 -482 1207.68 -482 1207 C-482.66 1207 -483.32 1207 -484 1207 C-484 1206.34 -484 1205.68 -484 1205 C-485.98 1205 -487.96 1205 -490 1205 C-490 1204.34 -490 1203.68 -490 1203 C-490.99 1203 -491.98 1203 -493 1203 C-493 1202.34 -493 1201.68 -493 1201 C-494.32 1201 -495.64 1201 -497 1201 C-497.33 1200.34 -497.66 1199.68 -498 1199 C-498.99 1199 -499.98 1199 -501 1199 C-501 1198.01 -501 1197.02 -501 1196 C-502.32 1196.33 -503.64 1196.66 -505 1197 C-505.495 1195.515 -505.495 1195.515 -506 1194 C-507.32 1194 -508.64 1194 -510 1194 C-510 1193.34 -510 1192.68 -510 1192 C-511.32 1192 -512.64 1192 -514 1192 C-514 884.44 -514 576.88 -514 260 C-513.34 260 -512.68 260 -512 260 C-512 259.01 -512 258.02 -512 257 C-510.68 257.33 -509.36 257.66 -508 258 C-508 257.34 -508 256.68 -508 256 C-507.34 256 -506.68 256 -506 256 C-506 255.01 -506 254.02 -506 253 C-504.35 253 -502.7 253 -501 253 C-501 252.34 -501 251.68 -501 251 C-499.68 251 -498.36 251 -497 251 C-497 250.34 -497 249.68 -497 249 C-495.68 249 -494.36 249 -493 249 C-493 248.34 -493 247.68 -493 247 C-492.01 247 -491.02 247 -490 247 C-490 246.01 -490 245.02 -490 244 C-488.35 244 -486.7 244 -485 244 C-484.67 243.34 -484.34 242.68 -484 242 C-482.68 242 -481.36 242 -480 242 C-480 241.34 -480 240.68 -480 240 C-478.35 240 -476.7 240 -475 240 C-475 239.34 -475 238.68 -475 238 C-473.68 238 -472.36 238 -471 238 C-471 237.34 -471 236.68 -471 236 C-469.68 236 -468.36 236 -467 236 C-467 235.34 -467 234.68 -467 234 C-466.01 233.67 -465.02 233.34 -464 233 C-463.34 233.33 -462.68 233.66 -462 234 C-462 233.01 -462 232.02 -462 231 C-461.01 231 -460.02 231 -459 231 C-458.67 230.34 -458.34 229.68 -458 229 C-456.35 229 -454.7 229 -453 229 C-453 228.34 -453 227.68 -453 227 C-451.68 227 -450.36 227 -449 227 C-449 226.34 -449 225.68 -449 225 C-447.68 225 -446.36 225 -445 225 C-445 224.34 -445 223.68 -445 223 C-443.35 223 -441.7 223 -440 223 C-440 222.01 -440 221.02 -440 220 C-438.68 220.33 -437.36 220.66 -436 221 C-436 220.01 -436 219.02 -436 218 C-434.68 218 -433.36 218 -432 218 C-432 217.34 -432 216.68 -432 216 C-430.35 216 -428.7 216 -427 216 C-427 215.34 -427 214.68 -427 214 C-425.68 214 -424.36 214 -423 214 C-423 213.34 -423 212.68 -423 212 C-422.34 212 -421.68 212 -421 212 C-421 211.34 -421 210.68 -421 210 C-418.69 210 -416.38 210 -414 210 C-414 209.01 -414 208.02 -414 207 C-413.01 207 -412.02 207 -411 207 C-410.67 206.34 -410.34 205.68 -410 205 C-408.35 205 -406.7 205 -405 205 C-405 204.34 -405 203.68 -405 203 C-403.68 203 -402.36 203 -401 203 C-401 202.34 -401 201.68 -401 201 C-399.68 201 -398.36 201 -397 201 C-397 200.34 -397 199.68 -397 199 C-395.35 199 -393.7 199 -392 199 C-392 198.01 -392 197.02 -392 196 C-390.68 196.33 -389.36 196.66 -388 197 C-388 196.01 -388 195.02 -388 194 C-386.68 194 -385.36 194 -384 194 C-384 193.34 -384 192.68 -384 192 C-382.35 192 -380.7 192 -379 192 C-379 191.34 -379 190.68 -379 190 C-377.68 190 -376.36 190 -375 190 C-375 189.34 -375 188.68 -375 188 C-373.68 188 -372.36 188 -371 188 C-371 187.34 -371 186.68 -371 186 C-369.35 186 -367.7 186 -366 186 C-366 185.01 -366 184.02 -366 183 C-365.01 183 -364.02 183 -363 183 C-362.67 182.34 -362.34 181.68 -362 181 C-360.68 181 -359.36 181 -358 181 C-358 180.34 -358 179.68 -358 179 C-356.35 179 -354.7 179 -353 179 C-353 178.34 -353 177.68 -353 177 C-352.34 177 -351.68 177 -351 177 C-351 176.34 -351 175.68 -351 175 C-349.88625 174.690625 -348.7725 174.38125 -347.625 174.0625 C-344.2054845 173.17673517 -344.2054845 173.17673517 -342 172 C-341.34 172.33 -340.68 172.66 -340 173 C-340 172.01 -340 171.02 -340 170 C-339.01 170 -338.02 170 -337 170 C-336.67 169.34 -336.34 168.68 -336 168 C-334.35 168 -332.7 168 -331 168 C-331 167.34 -331 166.68 -331 166 C-329.68 166 -328.36 166 -327 166 C-327 165.34 -327 164.68 -327 164 C-325.68 164 -324.36 164 -323 164 C-323 163.34 -323 162.68 -323 162 C-321.35 162 -319.7 162 -318 162 C-318 161.01 -318 160.02 -318 159 C-316.68 159.33 -315.36 159.66 -314 160 C-314 159.01 -314 158.02 -314 157 C-312.68 157 -311.36 157 -310 157 C-310 156.34 -310 155.68 -310 155 C-308.35 155 -306.7 155 -305 155 C-305 154.34 -305 153.68 -305 153 C-303.68 153 -302.36 153 -301 153 C-301 152.34 -301 151.68 -301 151 C-299.68 151 -298.36 151 -297 151 C-297 150.34 -297 149.68 -297 149 C-295.35 149 -293.7 149 -292 149 C-292 148.01 -292 147.02 -292 146 C-291.01 146 -290.02 146 -289 146 C-288.67 145.34 -288.34 144.68 -288 144 C-286.35 144 -284.7 144 -283 144 C-283 143.34 -283 142.68 -283 142 C-281.68 142 -280.36 142 -279 142 C-279 141.34 -279 140.68 -279 140 C-277.68 140 -276.36 140 -275 140 C-275 139.34 -275 138.68 -275 138 C-273.35 138 -271.7 138 -270 138 C-270 137.01 -270 136.02 -270 135 C-268.68 135.33 -267.36 135.66 -266 136 C-266 135.01 -266 134.02 -266 133 C-264.68 133 -263.36 133 -262 133 C-262 132.34 -262 131.68 -262 131 C-260.35 131 -258.7 131 -257 131 C-257 130.34 -257 129.68 -257 129 C-255.68 129 -254.36 129 -253 129 C-253 128.34 -253 127.68 -253 127 C-251.68 127 -250.36 127 -249 127 C-249 126.34 -249 125.68 -249 125 C-247.35 125 -245.7 125 -244 125 C-244 124.01 -244 123.02 -244 122 C-243.01 122 -242.02 122 -241 122 C-240.67 121.34 -240.34 120.68 -240 120 C-238.68 120 -237.36 120 -236 120 C-236 119.34 -236 118.68 -236 118 C-234.35 118 -232.7 118 -231 118 C-231 117.34 -231 116.68 -231 116 C-229.02 116 -227.04 116 -225 116 C-225 115.34 -225 114.68 -225 114 C-223.35 114 -221.7 114 -220 114 C-220 113.34 -220 112.68 -220 112 C-219.34 112 -218.68 112 -218 112 C-218 111.01 -218 110.02 -218 109 C-217.01 109 -216.02 109 -215 109 C-214.67 108.34 -214.34 107.68 -214 107 C-212.35 107 -210.7 107 -209 107 C-209 106.34 -209 105.68 -209 105 C-207.68 105 -206.36 105 -205 105 C-205 104.34 -205 103.68 -205 103 C-203.68 103 -202.36 103 -201 103 C-201 102.34 -201 101.68 -201 101 C-199.35 101 -197.7 101 -196 101 C-196 100.01 -196 99.02 -196 98 C-194.35 98 -192.7 98 -191 98 C-190.67 97.34 -190.34 96.68 -190 96 C-188.35 96 -186.7 96 -185 96 C-185 95.34 -185 94.68 -185 94 C-184.34 94 -183.68 94 -183 94 C-183 93.34 -183 92.68 -183 92 C-181.02 92 -179.04 92 -177 92 C-177 91.34 -177 90.68 -177 90 C-176.34 90 -175.68 90 -175 90 C-175 89.34 -175 88.68 -175 88 C-173.35 88 -171.7 88 -170 88 C-170 87.01 -170 86.02 -170 85 C-169.01 85 -168.02 85 -167 85 C-166.67 84.34 -166.34 83.68 -166 83 C-164.35 83 -162.7 83 -161 83 C-161 82.34 -161 81.68 -161 81 C-159.68 81 -158.36 81 -157 81 C-157 80.34 -157 79.68 -157 79 C-155.02 79 -153.04 79 -151 79 C-151 78.34 -151 77.68 -151 77 C-150.01 77 -149.02 77 -148 77 C-148 76.01 -148 75.02 -148 74 C-146.68 74.33 -145.36 74.66 -144 75 C-144 74.01 -144 73.02 -144 72 C-142.68 72 -141.36 72 -140 72 C-140 71.34 -140 70.68 -140 70 C-138.35 70 -136.7 70 -135 70 C-135 69.34 -135 68.68 -135 68 C-133.68 68 -132.36 68 -131 68 C-131 67.34 -131 66.68 -131 66 C-129.68 66 -128.36 66 -127 66 C-127 65.34 -127 64.68 -127 64 C-124.69 64 -122.38 64 -120 64 C-120 63.01 -120 62.02 -120 61 C-119.01 61 -118.02 61 -117 61 C-116.67 60.34 -116.34 59.68 -116 59 C-114.35 59 -112.7 59 -111 59 C-111 58.34 -111 57.68 -111 57 C-109.68 57 -108.36 57 -107 57 C-107 56.34 -107 55.68 -107 55 C-106.34 55 -105.68 55 -105 55 C-105 54.34 -105 53.68 -105 53 C-103.35 53 -101.7 53 -100 53 C-100 52.01 -100 51.02 -100 50 C-98.68 50.33 -97.36 50.66 -96 51 C-96 50.01 -96 49.02 -96 48 C-94.35 48 -92.7 48 -91 48 C-90.67 47.34 -90.34 46.68 -90 46 C-88.35 46 -86.7 46 -85 46 C-85 45.34 -85 44.68 -85 44 C-83.68 44 -82.36 44 -81 44 C-81 43.34 -81 42.68 -81 42 C-80.34 42 -79.68 42 -79 42 C-79 41.34 -79 40.68 -79 40 C-77.35 40 -75.7 40 -74 40 C-74 39.01 -74 38.02 -74 37 C-72.68 37.33 -71.36 37.66 -70 38 C-70 37.01 -70 36.02 -70 35 C-67.69 35 -65.38 35 -63 35 C-63 34.34 -63 33.68 -63 33 C-62.34 33 -61.68 33 -61 33 C-61 32.34 -61 31.68 -61 31 C-59.68 31 -58.36 31 -57 31 C-57 30.34 -57 29.68 -57 29 C-54.69 29 -52.38 29 -50 29 C-49.67 28.01 -49.34 27.02 -49 26 C-48.01 26.33 -47.02 26.66 -46 27 C-46 26.01 -46 25.02 -46 24 C-45.01 24 -44.02 24 -43 24 C-42.67 23.34 -42.34 22.68 -42 22 C-40.35 22 -38.7 22 -37 22 C-37 21.34 -37 20.68 -37 20 C-36.34 20 -35.68 20 -35 20 C-35 19.34 -35 18.68 -35 18 C-33.68 18 -32.36 18 -31 18 C-31 17.34 -31 16.68 -31 16 C-29.35 16 -27.7 16 -26 16 C-26 15.01 -26 14.02 -26 13 C-24.02 13.495 -24.02 13.495 -22 14 C-22 13.01 -22 12.02 -22 11 C-18.12315913 9.80712589 -15.08378077 9 -11 9 C-11 8.34 -11 7.68 -11 7 C-10.34 7 -9.68 7 -9 7 C-9 6.34 -9 5.68 -9 5 C-6.69 5 -4.38 5 -2 5 C-2 4.34 -2 3.68 -2 3 C-1.34 3 -0.68 3 0 3 C0 2.01 0 1.02 0 0 Z " fill="#090E1F" transform="translate(997,502)"/>
<path d="M0 0 C0 0.66 0 1.32 0 2 C1.65 2 3.3 2 5 2 C5.33 2.66 5.66 3.32 6 4 C6.99 4 7.98 4 9 4 C9 4.99 9 5.98 9 7 C10.485 6.505 10.485 6.505 12 6 C12.66 6.33 13.32 6.66 14 7 C14 7.66 14 8.32 14 9 C15.32 9 16.64 9 18 9 C18 9.66 18 10.32 18 11 C19.32 11 20.64 11 22 11 C22 11.66 22 12.32 22 13 C23.65 13 25.3 13 27 13 C27 13.66 27 14.32 27 15 C28.32 15 29.64 15 31 15 C31.33 15.66 31.66 16.32 32 17 C32.99 17 33.98 17 35 17 C35 17.99 35 18.98 35 20 C36.65 20 38.3 20 40 20 C40 20.66 40 21.32 40 22 C41.32 22 42.64 22 44 22 C44 22.66 44 23.32 44 24 C45.32 24 46.64 24 48 24 C48 24.66 48 25.32 48 26 C50.31 26 52.62 26 55 26 C55 26.99 55 27.98 55 29 C55.66 29 56.32 29 57 29 C57 29.66 57 30.32 57 31 C58.98 30.67 60.96 30.34 63 30 C63.33 30.99 63.66 31.98 64 33 C64.66 33 65.32 33 66 33 C66 33.66 66 34.32 66 35 C67.98 35 69.96 35 72 35 C72 35.66 72 36.32 72 37 C73.7015625 37.433125 73.7015625 37.433125 75.4375 37.875 C76.613125 38.24625 77.78875 38.6175 79 39 C79.33 39.66 79.66 40.32 80 41 C80.99 41 81.98 41 83 41 C83 41.99 83 42.98 83 44 C84.65 44 86.3 44 88 44 C88 44.66 88 45.32 88 46 C89.32 46 90.64 46 92 46 C92 46.66 92 47.32 92 48 C93.32 48 94.64 48 96 48 C96 48.66 96 49.32 96 50 C97.65 50 99.3 50 101 50 C101 50.66 101 51.32 101 52 C102.32 52 103.64 52 105 52 C105 52.99 105 53.98 105 55 C106.32 54.67 107.64 54.34 109 54 C109 54.99 109 55.98 109 57 C110.65 57 112.3 57 114 57 C114 57.66 114 58.32 114 59 C115.32 59 116.64 59 118 59 C118 59.66 118 60.32 118 61 C119.32 61 120.64 61 122 61 C122 61.66 122 62.32 122 63 C123.65 63 125.3 63 127 63 C127.33 63.66 127.66 64.32 128 65 C128.99 65 129.98 65 131 65 C131 65.99 131 66.98 131 68 C132.485 67.505 132.485 67.505 134 67 C134.66 67.33 135.32 67.66 136 68 C136 68.66 136 69.32 136 70 C137.32 70 138.64 70 140 70 C140 70.66 140 71.32 140 72 C141.32 72 142.64 72 144 72 C144 72.66 144 73.32 144 74 C145.65 74 147.3 74 149 74 C149 74.66 149 75.32 149 76 C150.32 76 151.64 76 153 76 C153.33 76.66 153.66 77.32 154 78 C154.99 78 155.98 78 157 78 C157 78.99 157 79.98 157 81 C158.65 81 160.3 81 162 81 C162 81.66 162 82.32 162 83 C163.32 83 164.64 83 166 83 C166 83.66 166 84.32 166 85 C167.32 85 168.64 85 170 85 C170 85.66 170 86.32 170 87 C171.65 87 173.3 87 175 87 C175.33 87.66 175.66 88.32 176 89 C176.99 89 177.98 89 179 89 C179 89.99 179 90.98 179 92 C180.32 91.67 181.64 91.34 183 91 C183 91.99 183 92.98 183 94 C184.65 94 186.3 94 188 94 C188 94.66 188 95.32 188 96 C189.32 96 190.64 96 192 96 C192 96.66 192 97.32 192 98 C192.7425 98.144375 193.485 98.28875 194.25 98.4375 C195.1575 98.623125 196.065 98.80875 197 99 C197.7425 99.144375 198.485 99.28875 199.25 99.4375 C200.11625 99.7159375 200.11625 99.7159375 201 100 C201.33 100.66 201.66 101.32 202 102 C202.99 102 203.98 102 205 102 C205 102.99 205 103.98 205 105 C206.65 105 208.3 105 210 105 C210 105.66 210 106.32 210 107 C211.32 107 212.64 107 214 107 C214 107.66 214 108.32 214 109 C215.32 109 216.64 109 218 109 C218 109.66 218 110.32 218 111 C219.65 111 221.3 111 223 111 C223 111.66 223 112.32 223 113 C224.32 113 225.64 113 227 113 C227 113.99 227 114.98 227 116 C228.32 115.67 229.64 115.34 231 115 C231 115.99 231 116.98 231 118 C232.65 118 234.3 118 236 118 C236 118.66 236 119.32 236 120 C237.32 120 238.64 120 240 120 C240 120.66 240 121.32 240 122 C241.32 122 242.64 122 244 122 C244 122.66 244 123.32 244 124 C245.65 124 247.3 124 249 124 C249.33 124.66 249.66 125.32 250 126 C250.99 126 251.98 126 253 126 C253 126.99 253 127.98 253 129 C253.99 128.67 254.98 128.34 256 128 C256.66 128.33 257.32 128.66 258 129 C258 129.66 258 130.32 258 131 C259.32 131 260.64 131 262 131 C262 131.66 262 132.32 262 133 C262.94875 132.95875 263.8975 132.9175 264.875 132.875 C268 133 268 133 270 135 C270.33 135.66 270.66 136.32 271 137 C272.98 137 274.96 137 277 137 C277 137.99 277 138.98 277 140 C277.66 140 278.32 140 279 140 C279 140.66 279 141.32 279 142 C280.65 142 282.3 142 284 142 C284 142.66 284 143.32 284 144 C285.32 144 286.64 144 288 144 C288 144.66 288 145.32 288 146 C289.32 146 290.64 146 292 146 C292 146.66 292 147.32 292 148 C293.65 148 295.3 148 297 148 C297.33 148.66 297.66 149.32 298 150 C298.99 150 299.98 150 301 150 C301 150.99 301 151.98 301 153 C302.32 152.67 303.64 152.34 305 152 C305 152.99 305 153.98 305 155 C306.65 155 308.3 155 310 155 C310 155.66 310 156.32 310 157 C311.32 157 312.64 157 314 157 C314 157.66 314 158.32 314 159 C315.65 159 317.3 159 319 159 C319 159.66 319 160.32 319 161 C320.32 161 321.64 161 323 161 C323.33 161.66 323.66 162.32 324 163 C324.99 163 325.98 163 327 163 C327 163.99 327 164.98 327 166 C328.65 166 330.3 166 332 166 C332 166.66 332 167.32 332 168 C333.98 168 335.96 168 338 168 C338 168.66 338 169.32 338 170 C338.66 170 339.32 170 340 170 C340 170.66 340 171.32 340 172 C342.31 172 344.62 172 347 172 C347 172.99 347 173.98 347 175 C347.66 175 348.32 175 349 175 C349 175.66 349 176.32 349 177 C350.32 176.67 351.64 176.34 353 176 C353 176.99 353 177.98 353 179 C354.65 179 356.3 179 358 179 C358 179.66 358 180.32 358 181 C359.32 181 360.64 181 362 181 C362 181.66 362 182.32 362 183 C363.32 183 364.64 183 366 183 C366 183.66 366 184.32 366 185 C367.65 185 369.3 185 371 185 C371.33 185.66 371.66 186.32 372 187 C372.99 187 373.98 187 375 187 C375 187.99 375 188.98 375 190 C376.65 190 378.3 190 380 190 C380 190.66 380 191.32 380 192 C381.32 192 382.64 192 384 192 C384 192.66 384 193.32 384 194 C385.32 194 386.64 194 388 194 C388 194.66 388 195.32 388 196 C389.65 196 391.3 196 393 196 C393 196.66 393 197.32 393 198 C394.32 198 395.64 198 397 198 C397 198.99 397 199.98 397 201 C398.32 200.67 399.64 200.34 401 200 C401 200.99 401 201.98 401 203 C403.31 203 405.62 203 408 203 C408 203.66 408 204.32 408 205 C408.66 205 409.32 205 410 205 C410 205.66 410 206.32 410 207 C412.31 207 414.62 207 417 207 C417 207.99 417 208.98 417 210 C420.96 210.495 420.96 210.495 425 211 C425 211.99 425 212.98 425 214 C425.66 214 426.32 214 427 214 C427 214.66 427 215.32 427 216 C429.31 216 431.62 216 434 216 C434 216.66 434 217.32 434 218 C434.66 218 435.32 218 436 218 C436 218.66 436 219.32 436 220 C437.65 220 439.3 220 441 220 C441 220.66 441 221.32 441 222 C442.32 222 443.64 222 445 222 C445.33 222.66 445.66 223.32 446 224 C446.99 224 447.98 224 449 224 C449 224.99 449 225.98 449 227 C450.65 227 452.3 227 454 227 C454 227.66 454 228.32 454 229 C455.32 229 456.64 229 458 229 C458 229.66 458 230.32 458 231 C459.32 231 460.64 231 462 231 C462 231.66 462 232.32 462 233 C463.65 233 465.3 233 467 233 C467.33 233.66 467.66 234.32 468 235 C468.99 235 469.98 235 471 235 C471 235.99 471 236.98 471 238 C472.98 237.67 474.96 237.34 477 237 C477.33 237.99 477.66 238.98 478 240 C478.66 240 479.32 240 480 240 C480 240.66 480 241.32 480 242 C480.94875 241.938125 481.8975 241.87625 482.875 241.8125 C483.90625 241.874375 484.9375 241.93625 486 242 C486.66 242.99 487.32 243.98 488 245 C491.56769552 245.73606499 491.56769552 245.73606499 495 246 C495 246.99 495 247.98 495 249 C495.66 249 496.32 249 497 249 C497 249.66 497 250.32 497 251 C499.31 251 501.62 251 504 251 C504 251.66 504 252.32 504 253 C504.66 253 505.32 253 506 253 C506 253.66 506 254.32 506 255 C507.32 255 508.64 255 510 255 C510 255.66 510 256.32 510 257 C511.65 257 513.3 257 515 257 C515 257.66 515 258.32 515 259 C516.32 259 517.64 259 519 259 C519 259.99 519 260.98 519 262 C520.98 261.505 520.98 261.505 523 261 C523 261.99 523 262.98 523 264 C524.65 264 526.3 264 528 264 C528 264.66 528 265.32 528 266 C529.32 266 530.64 266 532 266 C532 266.66 532 267.32 532 268 C533.32 268 534.64 268 536 268 C536 268.66 536 269.32 536 270 C537.65 270 539.3 270 541 270 C541.33 270.66 541.66 271.32 542 272 C543.65 272 545.3 272 547 272 C547 272.99 547 273.98 547 275 C549.97 275.66 552.94 276.32 556 277 C556 277.66 556 278.32 556 279 C556.66 279 557.32 279 558 279 C558 279.66 558 280.32 558 281 C559.093125 280.9175 560.18625 280.835 561.3125 280.75 C562.529375 280.8325 563.74625 280.915 565 281 C566.625 283 566.625 283 568 285 C570.62625139 285.33425735 570.62625139 285.33425735 573 285 C573 285.99 573 286.98 573 288 C573.99 288 574.98 288 576 288 C576 288.66 576 289.32 576 290 C577.32 290 578.64 290 580 290 C580 290.66 580 291.32 580 292 C581.32 292 582.64 292 584 292 C584 292.66 584 293.32 584 294 C585.65 294 587.3 294 589 294 C589.33 294.66 589.66 295.32 590 296 C590.99 296 591.98 296 593 296 C593 296.99 593 297.98 593 299 C594.98 298.505 594.98 298.505 597 298 C597 298.99 597 299.98 597 301 C598.65 301 600.3 301 602 301 C602 301.66 602 302.32 602 303 C603.98 303 605.96 303 608 303 C608 303.66 608 304.32 608 305 C610.97 305.66 613.94 306.32 617 307 C617 307.99 617 308.98 617 310 C617.66 310 618.32 310 619 310 C619 310.66 619 311.32 619 312 C621.31 312 623.62 312 626 312 C626 312.66 626 313.32 626 314 C626.66 314 627.32 314 628 314 C628 314.66 628 315.32 628 316 C629.98 316 631.96 316 634 316 C634 316.66 634 317.32 634 318 C634.99 318 635.98 318 637 318 C637 318.66 637 319.32 637 320 C638.98 320 640.96 320 643 320 C643 320.99 643 321.98 643 323 C643.66 323 644.32 323 645 323 C645 323.66 645 324.32 645 325 C646.65 325 648.3 325 650 325 C650 325.66 650 326.32 650 327 C651.32 327 652.64 327 654 327 C654 327.66 654 328.32 654 329 C655.093125 328.9175 656.18625 328.835 657.3125 328.75 C661 329 661 329 662.75 331 C663.1625 331.66 663.575 332.32 664 333 C664.99 333 665.98 333 667 333 C667 333.99 667 334.98 667 336 C667.99 335.67 668.98 335.34 670 335 C670.66 335.33 671.32 335.66 672 336 C672 336.66 672 337.32 672 338 C673.32 338 674.64 338 676 338 C676 338.66 676 339.32 676 340 C677.32 340 678.64 340 680 340 C680 340.66 680 341.32 680 342 C682.31 342 684.62 342 687 342 C687 342.99 687 343.98 687 345 C687.66 345 688.32 345 689 345 C689 345.66 689 346.32 689 347 C690.98 346.67 692.96 346.34 695 346 C695 346.99 695 347.98 695 349 C695.99 349 696.98 349 698 349 C698 349.66 698 350.32 698 351 C699.98 351 701.96 351 704 351 C704 351.66 704 352.32 704 353 C704.66 353 705.32 353 706 353 C706 353.66 706 354.32 706 355 C707.65 355 709.3 355 711 355 C711.33 355.66 711.66 356.32 712 357 C712.99 357 713.98 357 715 357 C715 357.99 715 358.98 715 360 C716.98 359.505 716.98 359.505 719 359 C719 359.99 719 360.98 719 362 C720.65 362 722.3 362 724 362 C724 362.66 724 363.32 724 364 C725.32 364 726.64 364 728 364 C728 364.66 728 365.32 728 366 C728.7425 366.144375 729.485 366.28875 730.25 366.4375 C731.1575 366.623125 732.065 366.80875 733 367 C733.7425 367.144375 734.485 367.28875 735.25 367.4375 C735.8275 367.623125 736.405 367.80875 737 368 C737.33 368.66 737.66 369.32 738 370 C738.99 370 739.98 370 741 370 C741 370.99 741 371.98 741 373 C742.65 373 744.3 373 746 373 C746 373.66 746 374.32 746 375 C747.32 375 748.64 375 750 375 C750 375.66 750 376.32 750 377 C751.32 377 752.64 377 754 377 C754 377.66 754 378.32 754 379 C755.65 379 757.3 379 759 379 C759 379.66 759 380.32 759 381 C760.32 381 761.64 381 763 381 C763 381.99 763 382.98 763 384 C764.98 383.505 764.98 383.505 767 383 C767 383.99 767 384.98 767 386 C767.66 386 768.32 386 769 386 C769 480.05 769 574.1 769 671 C766.36 671 763.72 671 761 671 C760.34 669.35 759.68 667.7 759 666 C757.68 666.33 756.36 666.66 755 667 C754.67 666.01 754.34 665.02 754 664 C753.34 664 752.68 664 752 664 C752 663.34 752 662.68 752 662 C750.02 662 748.04 662 746 662 C746 661.34 746 660.68 746 660 C744.35 660 742.7 660 741 660 C741 659.34 741 658.68 741 658 C739.68 658 738.36 658 737 658 C736.34 656.35 735.68 654.7 735 653 C733.02 653.33 731.04 653.66 729 654 C728.67 653.01 728.34 652.02 728 651 C727.34 651 726.68 651 726 651 C726 650.34 726 649.68 726 649 C724.6078125 649.061875 724.6078125 649.061875 723.1875 649.125 C720 649 720 649 717 647 C717 646.34 717 645.68 717 645 C715.02 645 713.04 645 711 645 C711 644.34 711 643.68 711 643 C709.35 642.67 707.7 642.34 706 642 C706 641.34 706 640.68 706 640 C705.01 640.33 704.02 640.66 703 641 C702.67 640.01 702.34 639.02 702 638 C701.34 638 700.68 638 700 638 C700 637.34 700 636.68 700 636 C697.69 636 695.38 636 693 636 C693 635.34 693 634.68 693 634 C692.34 634 691.68 634 691 634 C690.67 633.34 690.34 632.68 690 632 C688.8553125 632.0928125 688.8553125 632.0928125 687.6875 632.1875 C685 632 685 632 683.1875 630.625 C682 629 682 629 682 627 C680.02 627 678.04 627 676 627 C676 626.34 676 625.68 676 625 C674.68 625 673.36 625 672 625 C672 624.34 672 623.68 672 623 C670.35 623 668.7 623 667 623 C667 622.34 667 621.68 667 621 C665.68 621 664.36 621 663 621 C663 620.34 663 619.68 663 619 C662.2575 618.87625 661.515 618.7525 660.75 618.625 C658.19858515 618.04513299 656.2732427 617.26291261 654 616 C654 615.34 654 614.68 654 614 C652.68 614 651.36 614 650 614 C650 613.34 650 612.68 650 612 C648.35 612 646.7 612 645 612 C645 611.34 645 610.68 645 610 C643.68 610 642.36 610 641 610 C641 609.34 641 608.68 641 608 C639.68 608 638.36 608 637 608 C636.34 607.34 635.68 606.68 635 606 C632.41645782 605.83312552 632.41645782 605.83312552 630 606 C630 604.35 630 602.7 630 601 C628.02 601 626.04 601 624 601 C624 600.34 624 599.68 624 599 C622.35 599 620.7 599 619 599 C619 598.34 619 597.68 619 597 C617.68 597 616.36 597 615 597 C615 596.34 615 595.68 615 595 C613.68 595 612.36 595 611 595 C610.34 594.34 609.68 593.68 609 593 C608.01 593 607.02 593 606 593 C606 592.01 606 591.02 606 590 C604.68 590 603.36 590 602 590 C602 589.34 602 588.68 602 588 C600.35 588 598.7 588 597 588 C597 587.34 597 586.68 597 586 C595.68 586 594.36 586 593 586 C593 585.34 593 584.68 593 584 C591.68 584 590.36 584 589 584 C589 583.34 589 582.68 589 582 C587.35 581.67 585.7 581.34 584 581 C584 580.34 584 579.68 584 579 C582.68 579 581.36 579 580 579 C580 578.34 580 577.68 580 577 C578.68 577 577.36 577 576 577 C576 576.34 576 575.68 576 575 C574.35 575 572.7 575 571 575 C571 574.34 571 573.68 571 573 C569.68 573 568.36 573 567 573 C567 572.34 567 571.68 567 571 C565.02 571 563.04 571 561 571 C560.67 570.01 560.34 569.02 560 568 C559.34 568 558.68 568 558 568 C558 567.34 558 566.68 558 566 C556.68 566 555.36 566 554 566 C554 565.34 554 564.68 554 564 C552.68 564 551.36 564 550 564 C550 563.34 550 562.68 550 562 C548.35 562 546.7 562 545 562 C545 561.34 545 560.68 545 560 C543.68 560 542.36 560 541 560 C541 559.34 541 558.68 541 558 C539.35 557.67 537.7 557.34 536 557 C536 556.34 536 555.68 536 555 C535.01 555.33 534.02 555.66 533 556 C532.67 555.01 532.34 554.02 532 553 C530.68 553 529.36 553 528 553 C528 552.34 528 551.68 528 551 C526.35 551 524.7 551 523 551 C523 550.34 523 549.68 523 549 C521.68 549 520.36 549 519 549 C519 548.34 519 547.68 519 547 C517.68 547 516.36 547 515 547 C514.34 546.34 513.68 545.68 513 545 C512.01 544.67 511.02 544.34 510 544 C510 543.34 510 542.68 510 542 C508.68 542 507.36 542 506 542 C506 541.34 506 540.68 506 540 C504.68 540 503.36 540 502 540 C502 539.34 502 538.68 502 538 C500.35 538 498.7 538 497 538 C497 537.34 497 536.68 497 536 C495.63875 536.12375 495.63875 536.12375 494.25 536.25 C490.28210991 535.94477769 489.5522317 534.90426366 487 532 C486.01 531.67 485.02 531.34 484 531 C484 530.34 484 529.68 484 529 C482.68 529 481.36 529 480 529 C480 528.34 480 527.68 480 527 C478.35 527 476.7 527 475 527 C475 526.34 475 525.68 475 525 C473.68 525 472.36 525 471 525 C471 524.34 471 523.68 471 523 C469.68 523 468.36 523 467 523 C466.34 522.34 465.68 521.68 465 521 C464.01 520.67 463.02 520.34 462 520 C462 519.34 462 518.68 462 518 C460.68 518 459.36 518 458 518 C458 517.34 458 516.68 458 516 C456.68 516 455.36 516 454 516 C454 515.34 454 514.68 454 514 C452.35 514 450.7 514 449 514 C449 513.34 449 512.68 449 512 C447.68 512 446.36 512 445 512 C445 511.34 445 510.68 445 510 C443.68 510 442.36 510 441 510 C440.34 509.34 439.68 508.68 439 508 C438.01 507.67 437.02 507.34 436 507 C436 506.34 436 505.68 436 505 C434.68 505 433.36 505 432 505 C432 504.34 432 503.68 432 503 C430.68 503 429.36 503 428 503 C428 502.34 428 501.68 428 501 C426.35 501 424.7 501 423 501 C423 500.34 423 499.68 423 499 C421.68 499 420.36 499 419 499 C419 498.01 419 497.02 419 496 C417.02 496.495 417.02 496.495 415 497 C414.67 496.01 414.34 495.02 414 494 C413.01 494.33 412.02 494.66 411 495 C410.67 494.01 410.34 493.02 410 492 C408.68 492 407.36 492 406 492 C406 491.34 406 490.68 406 490 C404.35 490 402.7 490 401 490 C401 489.34 401 488.68 401 488 C399.68 488 398.36 488 397 488 C397 487.34 397 486.68 397 486 C395.68 486 394.36 486 393 486 C392.34 485.34 391.68 484.68 391 484 C390.01 483.67 389.02 483.34 388 483 C388 482.34 388 481.68 388 481 C386.68 481 385.36 481 384 481 C384 480.34 384 479.68 384 479 C382.68 479 381.36 479 380 479 C380 478.34 380 477.68 380 477 C378.35 477 376.7 477 375 477 C375 476.34 375 475.68 375 475 C373.68 475 372.36 475 371 475 C371 474.34 371 473.68 371 473 C369.68 473 368.36 473 367 473 C366.34 472.34 365.68 471.68 365 471 C364.01 470.67 363.02 470.34 362 470 C362 469.34 362 468.68 362 468 C360.68 468 359.36 468 358 468 C358 467.34 358 466.68 358 466 C356.35 466 354.7 466 353 466 C353 465.34 353 464.68 353 464 C351.68 464 350.36 464 349 464 C349 463.34 349 462.68 349 462 C347.68 462 346.36 462 345 462 C345 461.34 345 460.68 345 460 C343.35 459.67 341.7 459.34 340 459 C340 458.34 340 457.68 340 457 C338.68 457 337.36 457 336 457 C336 456.34 336 455.68 336 455 C334.68 455 333.36 455 332 455 C332 454.34 332 453.68 332 453 C330.35 453 328.7 453 327 453 C327 452.34 327 451.68 327 451 C325.68 451 324.36 451 323 451 C323 450.34 323 449.68 323 449 C321.68 449 320.36 449 319 449 C318.34 448.34 317.68 447.68 317 447 C316.01 446.67 315.02 446.34 314 446 C314 445.34 314 444.68 314 444 C312.68 444 311.36 444 310 444 C310 443.34 310 442.68 310 442 C309.2575 441.855625 308.515 441.71125 307.75 441.5625 C305.47972261 441.09812508 303.24240521 440.58136431 301 440 C301 439.34 301 438.68 301 438 C299.68 438 298.36 438 297 438 C296.34 437.34 295.68 436.68 295 436 C294.01 435.67 293.02 435.34 292 435 C292 434.34 292 433.68 292 433 C291.01 433.33 290.02 433.66 289 434 C288.67 433.01 288.34 432.02 288 431 C286.68 431 285.36 431 284 431 C284 430.34 284 429.68 284 429 C282.35 429 280.7 429 279 429 C279 428.34 279 427.68 279 427 C277.68 427 276.36 427 275 427 C275 426.34 275 425.68 275 425 C273.68 425 272.36 425 271 425 C270.34 424.34 269.68 423.68 269 423 C268.01 422.67 267.02 422.34 266 422 C266 421.34 266 420.68 266 420 C264.68 420 263.36 420 262 420 C262 419.34 262 418.68 262 418 C260.68 418 259.36 418 258 418 C258 417.34 258 416.68 258 416 C256.35 416 254.7 416 253 416 C253 415.34 253 414.68 253 414 C251.68 414 250.36 414 249 414 C249 413.34 249 412.68 249 412 C247.68 412 246.36 412 245 412 C244.34 411.34 243.68 410.68 243 410 C242.01 409.67 241.02 409.34 240 409 C240 408.34 240 407.68 240 407 C238.68 407 237.36 407 236 407 C236 406.34 236 405.68 236 405 C234.35 405 232.7 405 231 405 C231 404.34 231 403.68 231 403 C229.68 403 228.36 403 227 403 C227 402.34 227 401.68 227 401 C225.68 401 224.36 401 223 401 C222.34 400.34 221.68 399.68 221 399 C220.01 398.67 219.02 398.34 218 398 C218 397.34 218 396.68 218 396 C216.68 396 215.36 396 214 396 C214 395.34 214 394.68 214 394 C212.68 394 211.36 394 210 394 C210 393.34 210 392.68 210 392 C209.01 392 208.02 392 207 392 C207 391.34 207 390.68 207 390 C205.02 390 203.04 390 201 390 C201 389.01 201 388.02 201 387 C200.34 387 199.68 387 199 387 C199 386.34 199 385.68 199 385 C197.02 385.33 195.04 385.66 193 386 C192.67 385.01 192.34 384.02 192 383 C191.34 383 190.68 383 190 383 C190 382.34 190 381.68 190 381 C189.113125 381.04125 188.22625 381.0825 187.3125 381.125 C184.02722987 381.00102754 181.94550705 380.38612096 179 379 C179 378.34 179 377.68 179 377 C177.68 377 176.36 377 175 377 C175 376.01 175 375.02 175 374 C174.34 374 173.68 374 173 374 C173 373.34 173 372.68 173 372 C171.02 372.33 169.04 372.66 167 373 C166.67 372.01 166.34 371.02 166 370 C165.34 370 164.68 370 164 370 C164 369.34 164 368.68 164 368 C161.69 368 159.38 368 157 368 C157 367.34 157 366.68 157 366 C155.68 366 154.36 366 153 366 C152.34 364.35 151.68 362.7 151 361 C149.02 361.33 147.04 361.66 145 362 C144.67 361.01 144.34 360.02 144 359 C142.68 359 141.36 359 140 359 C140 358.34 140 357.68 140 357 C139.34 357 138.68 357 138 357 C138 356.34 138 355.68 138 355 C135.69 355 133.38 355 131 355 C131 354.34 131 353.68 131 353 C130.34 353 129.68 353 129 353 C128.67 352.34 128.34 351.68 128 351 C126.35 351 124.7 351 123 351 C122.67 350.01 122.34 349.02 122 348 C121.34 348 120.68 348 120 348 C120 347.34 120 346.68 120 346 C118.02 346 116.04 346 114 346 C114 345.34 114 344.68 114 344 C113.34 344 112.68 344 112 344 C112 343.34 112 342.68 112 342 C109.69 342 107.38 342 105 342 C104.34 340.35 103.68 338.7 103 337 C101.02 337.33 99.04 337.66 97 338 C96.67 337.01 96.34 336.02 96 335 C95.34 335 94.68 335 94 335 C94 334.34 94 333.68 94 333 C92.02 333 90.04 333 88 333 C88 332.34 88 331.68 88 331 C86.35 331 84.7 331 83 331 C83 330.34 83 329.68 83 329 C82.34 329 81.68 329 81 329 C80.67 328.34 80.34 327.68 80 327 C79.21625 327.04125 78.4325 327.0825 77.625 327.125 C75 327 75 327 73 325 C72.01 325 71.02 325 70 325 C70 324.01 70 323.02 70 322 C69.34 322 68.68 322 68 322 C68 321.34 68 320.68 68 320 C66.6078125 320.061875 66.6078125 320.061875 65.1875 320.125 C62 320 62 320 59 318 C59 317.34 59 316.68 59 316 C57.02 316 55.04 316 53 316 C52.34 314.35 51.68 312.7 51 311 C49.02 311.33 47.04 311.66 45 312 C44.67 311.01 44.34 310.02 44 309 C43.34 309 42.68 309 42 309 C42 308.34 42 307.68 42 307 C39.69 307 37.38 307 35 307 C35 306.34 35 305.68 35 305 C34.34 305 33.68 305 33 305 C32.67 304.34 32.34 303.68 32 303 C30.8553125 303.0928125 30.8553125 303.0928125 29.6875 303.1875 C27 303 27 303 25.1875 301.625 C24 300 24 300 24 298 C22.02 298 20.04 298 18 298 C18 297.34 18 296.68 18 296 C17.34 296 16.68 296 16 296 C16 295.34 16 294.68 16 294 C13.69 294 11.38 294 9 294 C9 293.34 9 292.68 9 292 C7.68 292 6.36 292 5 292 C5 291.34 5 290.68 5 290 C3.35 289.67 1.7 289.34 0 289 C0 288.34 0 287.68 0 287 C-0.66 287 -1.32 287 -2 287 C-2 286.34 -2 285.68 -2 285 C-3.98 285 -5.96 285 -8 285 C-8 285.66 -8 286.32 -8 287 C-8.99 287.33 -9.98 287.66 -11 288 C-11.66 287.67 -12.32 287.34 -13 287 C-13 287.99 -13 288.98 -13 290 C-14.32 290 -15.64 290 -17 290 C-17 290.66 -17 291.32 -17 292 C-17.66 292 -18.32 292 -19 292 C-19 292.66 -19 293.32 -19 294 C-21.31 294 -23.62 294 -26 294 C-26 294.66 -26 295.32 -26 296 C-26.66 296 -27.32 296 -28 296 C-28 296.66 -28 297.32 -28 298 C-29.98 298 -31.96 298 -34 298 C-34.33 298.99 -34.66 299.98 -35 301 C-36.32 300.67 -37.64 300.34 -39 300 C-39 300.99 -39 301.98 -39 303 C-40.32 303 -41.64 303 -43 303 C-43 303.66 -43 304.32 -43 305 C-44.65 305 -46.3 305 -48 305 C-48 305.66 -48 306.32 -48 307 C-49.32 307 -50.64 307 -52 307 C-52 307.66 -52 308.32 -52 309 C-52.66 309 -53.32 309 -54 309 C-54.33 309.99 -54.66 310.98 -55 312 C-56.98 311.67 -58.96 311.34 -61 311 C-61 311.99 -61 312.98 -61 314 C-61.99 314 -62.98 314 -64 314 C-64.33 314.66 -64.66 315.32 -65 316 C-66.32 316 -67.64 316 -69 316 C-69 316.66 -69 317.32 -69 318 C-70.65 318 -72.3 318 -74 318 C-74 318.66 -74 319.32 -74 320 C-75.32 320 -76.64 320 -78 320 C-78 320.66 -78 321.32 -78 322 C-79.32 322 -80.64 322 -82 322 C-82.33 322.99 -82.66 323.98 -83 325 C-84.32 324.67 -85.64 324.34 -87 324 C-87 324.66 -87 325.32 -87 326 C-87.66 326 -88.32 326 -89 326 C-89 326.99 -89 327.98 -89 329 C-90.98 329 -92.96 329 -95 329 C-95 329.66 -95 330.32 -95 331 C-95.99 331 -96.98 331 -98 331 C-98 331.66 -98 332.32 -98 333 C-99.98 333 -101.96 333 -104 333 C-104 333.66 -104 334.32 -104 335 C-104.639375 335.12375 -105.27875 335.2475 -105.9375 335.375 C-106.618125 335.58125 -107.29875 335.7875 -108 336 C-108.33 336.66 -108.66 337.32 -109 338 C-110.32 337.67 -111.64 337.34 -113 337 C-113 337.99 -113 338.98 -113 340 C-114.32 340 -115.64 340 -117 340 C-117 340.66 -117 341.32 -117 342 C-118.65 342 -120.3 342 -122 342 C-122 342.66 -122 343.32 -122 344 C-122.66 344 -123.32 344 -124 344 C-124 344.66 -124 345.32 -124 346 C-125.98 346 -127.96 346 -130 346 C-130.33 346.99 -130.66 347.98 -131 349 C-132.32 348.67 -133.64 348.34 -135 348 C-135 348.99 -135 349.98 -135 351 C-135.99 351 -136.98 351 -138 351 C-138.33 351.66 -138.66 352.32 -139 353 C-140.32 353 -141.64 353 -143 353 C-143 353.66 -143 354.32 -143 355 C-144.65 355 -146.3 355 -148 355 C-148 355.66 -148 356.32 -148 357 C-149.32 357 -150.64 357 -152 357 C-152 357.66 -152 358.32 -152 359 C-153.32 359 -154.64 359 -156 359 C-156 359.66 -156 360.32 -156 361 C-157.125 362.625 -157.125 362.625 -159 364 C-162.1875 364.1875 -162.1875 364.1875 -165 364 C-165 364.66 -165 365.32 -165 366 C-165.66 366 -166.32 366 -167 366 C-167 366.66 -167 367.32 -167 368 C-169.31 368 -171.62 368 -174 368 C-174 368.66 -174 369.32 -174 370 C-175.32 370 -176.64 370 -178 370 C-178.33 370.99 -178.66 371.98 -179 373 C-180.32 372.67 -181.64 372.34 -183 372 C-183 372.99 -183 373.98 -183 375 C-183.99 375 -184.98 375 -186 375 C-186.33 375.66 -186.66 376.32 -187 377 C-188.32 377 -189.64 377 -191 377 C-191 377.66 -191 378.32 -191 379 C-194.4352048 381.29013653 -195.985331 381.17842973 -200 381 C-200 381.66 -200 382.32 -200 383 C-201.32 383 -202.64 383 -204 383 C-204.33 383.99 -204.66 384.98 -205 386 C-206.32 385.67 -207.64 385.34 -209 385 C-209 385.99 -209 386.98 -209 388 C-210.32 388 -211.64 388 -213 388 C-213 388.66 -213 389.32 -213 390 C-214.32 390 -215.64 390 -217 390 C-217 390.66 -217 391.32 -217 392 C-218.65 392 -220.3 392 -222 392 C-222 392.66 -222 393.32 -222 394 C-223.32 394 -224.64 394 -226 394 C-226 394.66 -226 395.32 -226 396 C-226.66 396 -227.32 396 -228 396 C-228.33 396.99 -228.66 397.98 -229 399 C-230.65 399 -232.3 399 -234 399 C-234.33 399.66 -234.66 400.32 -235 401 C-236.32 401 -237.64 401 -239 401 C-239 401.66 -239 402.32 -239 403 C-240.65 403 -242.3 403 -244 403 C-244 403.66 -244 404.32 -244 405 C-245.32 405 -246.64 405 -248 405 C-248 405.66 -248 406.32 -248 407 C-249.32 407 -250.64 407 -252 407 C-252.33 407.99 -252.66 408.98 -253 410 C-254.32 409.67 -255.64 409.34 -257 409 C-257 409.99 -257 410.98 -257 412 C-257.99 412 -258.98 412 -260 412 C-260.33 412.66 -260.66 413.32 -261 414 C-262.32 414 -263.64 414 -265 414 C-265 414.66 -265 415.32 -265 416 C-266.65 416 -268.3 416 -270 416 C-270 416.66 -270 417.32 -270 418 C-271.32 418 -272.64 418 -274 418 C-274 418.66 -274 419.32 -274 420 C-275.32 420 -276.64 420 -278 420 C-278.33 420.99 -278.66 421.98 -279 423 C-280.32 422.67 -281.64 422.34 -283 422 C-283 422.99 -283 423.98 -283 425 C-284.32 425 -285.64 425 -287 425 C-287 425.66 -287 426.32 -287 427 C-288.65 427 -290.3 427 -292 427 C-292 427.66 -292 428.32 -292 429 C-293.32 429 -294.64 429 -296 429 C-296 429.66 -296 430.32 -296 431 C-297.32 431 -298.64 431 -300 431 C-300.33 431.99 -300.66 432.98 -301 434 C-302.32 433.67 -303.64 433.34 -305 433 C-305 433.99 -305 434.98 -305 436 C-305.99 436 -306.98 436 -308 436 C-308.33 436.66 -308.66 437.32 -309 438 C-310.32 438 -311.64 438 -313 438 C-313 438.66 -313 439.32 -313 440 C-314.65 440 -316.3 440 -318 440 C-318 440.66 -318 441.32 -318 442 C-319.32 442 -320.64 442 -322 442 C-322 442.66 -322 443.32 -322 444 C-323.32 444 -324.64 444 -326 444 C-326.33 444.99 -326.66 445.98 -327 447 C-328.32 446.67 -329.64 446.34 -331 446 C-331 446.99 -331 447.98 -331 449 C-331.99 449 -332.98 449 -334 449 C-334.33 449.66 -334.66 450.32 -335 451 C-336.32 451 -337.64 451 -339 451 C-339 451.66 -339 452.32 -339 453 C-340.65 453 -342.3 453 -344 453 C-344 453.66 -344 454.32 -344 455 C-345.32 455 -346.64 455 -348 455 C-348 455.66 -348 456.32 -348 457 C-349.65 457 -351.3 457 -353 457 C-353 457.99 -353 458.98 -353 460 C-353.99 460 -354.98 460 -356 460 C-356.33 460.66 -356.66 461.32 -357 462 C-358.32 462 -359.64 462 -361 462 C-361 462.66 -361 463.32 -361 464 C-362.65 464 -364.3 464 -366 464 C-366 464.66 -366 465.32 -366 466 C-367.32 466 -368.64 466 -370 466 C-370 466.66 -370 467.32 -370 468 C-370.66 468 -371.32 468 -372 468 C-372.33 468.99 -372.66 469.98 -373 471 C-374.98 470.67 -376.96 470.34 -379 470 C-379.66 471.65 -380.32 473.3 -381 475 C-382.98 475 -384.96 475 -387 475 C-387 475.66 -387 476.32 -387 477 C-388.65 477 -390.3 477 -392 477 C-392 477.66 -392 478.32 -392 479 C-393.32 479 -394.64 479 -396 479 C-396 479.66 -396 480.32 -396 481 C-397.32 481 -398.64 481 -400 481 C-400.33 481.99 -400.66 482.98 -401 484 C-402.32 483.67 -403.64 483.34 -405 483 C-405 483.99 -405 484.98 -405 486 C-405.66 486 -406.32 486 -407 486 C-407 486.66 -407 487.32 -407 488 C-409.31 488 -411.62 488 -414 488 C-414 488.66 -414 489.32 -414 490 C-415.32 490 -416.64 490 -418 490 C-418 490.66 -418 491.32 -418 492 C-419.32 492 -420.64 492 -422 492 C-422 492.66 -422 493.32 -422 494 C-422.99 494.33 -423.98 494.66 -425 495 C-425.66 494.67 -426.32 494.34 -427 494 C-427 494.99 -427 495.98 -427 497 C-427.99 497 -428.98 497 -430 497 C-430.33 497.66 -430.66 498.32 -431 499 C-431.66 499 -432.32 499 -433 499 C-433 499.66 -433 500.32 -433 501 C-435.31 501 -437.62 501 -440 501 C-440 501.66 -440 502.32 -440 503 C-440.66 503 -441.32 503 -442 503 C-442 503.66 -442 504.32 -442 505 C-443.98 505 -445.96 505 -448 505 C-448 505.66 -448 506.32 -448 507 C-449.1875 508.625 -449.1875 508.625 -451 510 C-453.6875 510.1875 -453.6875 510.1875 -456 510 C-456.33 510.66 -456.66 511.32 -457 512 C-458.32 512 -459.64 512 -461 512 C-461 512.66 -461 513.32 -461 514 C-462.65 514 -464.3 514 -466 514 C-466 514.66 -466 515.32 -466 516 C-467.32 516 -468.64 516 -470 516 C-470 516.66 -470 517.32 -470 518 C-471.65 518 -473.3 518 -475 518 C-475.66 519.65 -476.32 521.3 -477 523 C-478.98 523 -480.96 523 -483 523 C-483 523.66 -483 524.32 -483 525 C-484.65 525 -486.3 525 -488 525 C-488 525.66 -488 526.32 -488 527 C-489.32 527 -490.64 527 -492 527 C-492 527.66 -492 528.32 -492 529 C-493.32 529 -494.64 529 -496 529 C-496.33 529.99 -496.66 530.98 -497 532 C-498.32 531.67 -499.64 531.34 -501 531 C-501.66 532.65 -502.32 534.3 -503 536 C-504.98 536 -506.96 536 -509 536 C-509 536.66 -509 537.32 -509 538 C-509.99 538 -510.98 538 -512 538 C-512 538.66 -512 539.32 -512 540 C-513.98 540 -515.96 540 -518 540 C-518 540.66 -518 541.32 -518 542 C-518.66 542 -519.32 542 -520 542 C-520.33 542.99 -520.66 543.98 -521 545 C-522.98 544.67 -524.96 544.34 -527 544 C-527 544.99 -527 545.98 -527 547 C-528.32 547 -529.64 547 -531 547 C-531 547.66 -531 548.32 -531 549 C-532.65 549 -534.3 549 -536 549 C-536 549.66 -536 550.32 -536 551 C-537.32 551 -538.64 551 -540 551 C-540 551.66 -540 552.32 -540 553 C-541.32 553 -542.64 553 -544 553 C-544 553.66 -544 554.32 -544 555 C-544.66 555 -545.32 555 -546 555 C-546.33 555.99 -546.66 556.98 -547 558 C-548.65 558 -550.3 558 -552 558 C-552.33 558.66 -552.66 559.32 -553 560 C-554.32 560 -555.64 560 -557 560 C-557 560.66 -557 561.32 -557 562 C-558.65 562 -560.3 562 -562 562 C-562 562.66 -562 563.32 -562 564 C-563.32 564 -564.64 564 -566 564 C-566 564.66 -566 565.32 -566 566 C-567.32 566 -568.64 566 -570 566 C-570 566.66 -570 567.32 -570 568 C-571.1875 569.625 -571.1875 569.625 -573 571 C-575.6875 571.1875 -575.6875 571.1875 -578 571 C-578.33 571.66 -578.66 572.32 -579 573 C-579.66 573 -580.32 573 -581 573 C-581 573.66 -581 574.32 -581 575 C-583.31 575 -585.62 575 -588 575 C-588 575.66 -588 576.32 -588 577 C-588.66 577 -589.32 577 -590 577 C-590 577.66 -590 578.32 -590 579 C-592.31 579 -594.62 579 -597 579 C-597 579.99 -597 580.98 -597 582 C-597.99 582 -598.98 582 -600 582 C-600.33 582.66 -600.66 583.32 -601 584 C-602.32 584 -603.64 584 -605 584 C-605 584.66 -605 585.32 -605 586 C-606.65 586 -608.3 586 -610 586 C-610 586.66 -610 587.32 -610 588 C-611.32 588 -612.64 588 -614 588 C-614 588.66 -614 589.32 -614 590 C-614.66 590 -615.32 590 -616 590 C-616.33 590.99 -616.66 591.98 -617 593 C-618.98 592.67 -620.96 592.34 -623 592 C-623 592.99 -623 593.98 -623 595 C-624.32 595 -625.64 595 -627 595 C-627 595.66 -627 596.32 -627 597 C-628.32 597 -629.64 597 -631 597 C-631 597.66 -631 598.32 -631 599 C-632.65 599 -634.3 599 -636 599 C-636 599.66 -636 600.32 -636 601 C-637.32 601 -638.64 601 -640 601 C-640 601.66 -640 602.32 -640 603 C-640.66 603 -641.32 603 -642 603 C-642.33 603.99 -642.66 604.98 -643 606 C-644.98 605.67 -646.96 605.34 -649 605 C-649.99 607.475 -649.99 607.475 -651 610 C-653.31 610 -655.62 610 -658 610 C-658 610.66 -658 611.32 -658 612 C-658.66 612 -659.32 612 -660 612 C-660 612.66 -660 613.32 -660 614 C-661.98 614 -663.96 614 -666 614 C-666.33 614.99 -666.66 615.98 -667 617 C-668.32 616.67 -669.64 616.34 -671 616 C-671 616.99 -671 617.98 -671 619 C-671.99 619 -672.98 619 -674 619 C-674.33 619.66 -674.66 620.32 -675 621 C-676.32 621 -677.64 621 -679 621 C-679 621.66 -679 622.32 -679 623 C-680.65 623 -682.3 623 -684 623 C-684 623.66 -684 624.32 -684 625 C-684.66 625 -685.32 625 -686 625 C-686 625.66 -686 626.32 -686 627 C-687.98 627 -689.96 627 -692 627 C-692.33 627.99 -692.66 628.98 -693 630 C-694.32 629.67 -695.64 629.34 -697 629 C-697 629.99 -697 630.98 -697 632 C-698.32 632 -699.64 632 -701 632 C-701 632.66 -701 633.32 -701 634 C-704.37097383 635.49821059 -706.20442119 636 -710 636 C-710 636.66 -710 637.32 -710 638 C-711.32 638 -712.64 638 -714 638 C-714.33 638.99 -714.66 639.98 -715 641 C-716.32 640.67 -717.64 640.34 -719 640 C-719.99 642.475 -719.99 642.475 -721 645 C-722.98 645 -724.96 645 -727 645 C-727 645.66 -727 646.32 -727 647 C-727.66 647 -728.32 647 -729 647 C-729 647.66 -729 648.32 -729 649 C-731.31 649 -733.62 649 -736 649 C-736 649.66 -736 650.32 -736 651 C-737.32 651 -738.64 651 -740 651 C-740.33 651.99 -740.66 652.98 -741 654 C-742.32 653.67 -743.64 653.34 -745 653 C-745 653.99 -745 654.98 -745 656 C-746.32 656 -747.64 656 -749 656 C-749 656.66 -749 657.32 -749 658 C-750.32 658 -751.64 658 -753 658 C-753 658.66 -753 659.32 -753 660 C-753.99 660 -754.98 660 -756 660 C-756 660.66 -756 661.32 -756 662 C-757.98 662 -759.96 662 -762 662 C-762 662.66 -762 663.32 -762 664 C-762.9590625 664.185625 -762.9590625 664.185625 -763.9375 664.375 C-764.618125 664.58125 -765.29875 664.7875 -766 665 C-766.33 665.66 -766.66 666.32 -767 667 C-768.32 666.67 -769.64 666.34 -771 666 C-771 666.99 -771 667.98 -771 669 C-772.32 669 -773.64 669 -775 669 C-775 669.66 -775 670.32 -775 671 C-776.65 671 -778.3 671 -780 671 C-780 576.29 -780 481.58 -780 384 C-775 383 -775 383 -773 384 C-773 383.01 -773 382.02 -773 381 C-771.68 381 -770.36 381 -769 381 C-769 380.34 -769 379.68 -769 379 C-768.01 379 -767.02 379 -766 379 C-766 378.34 -766 377.68 -766 377 C-764.02 377 -762.04 377 -760 377 C-760 376.34 -760 375.68 -760 375 C-759.34 375 -758.68 375 -758 375 C-758 374.34 -758 373.68 -758 373 C-755.69 373 -753.38 373 -751 373 C-751 372.34 -751 371.68 -751 371 C-750.34 371 -749.68 371 -749 371 C-749 370.01 -749 369.02 -749 368 C-746.03 367.34 -743.06 366.68 -740 366 C-740 365.34 -740 364.68 -740 364 C-738.02 364 -736.04 364 -734 364 C-734 363.34 -734 362.68 -734 362 C-733.34 362 -732.68 362 -732 362 C-731.67 361.01 -731.34 360.02 -731 359 C-729.02 359.33 -727.04 359.66 -725 360 C-725 359.34 -725 358.68 -725 358 C-724.34 358 -723.68 358 -723 358 C-723 357.01 -723 356.02 -723 355 C-720.69 355 -718.38 355 -716 355 C-716 354.34 -716 353.68 -716 353 C-715.34 353 -714.68 353 -714 353 C-714 352.34 -714 351.68 -714 351 C-712.68 351 -711.36 351 -710 351 C-710 350.34 -710 349.68 -710 349 C-708.35 349 -706.7 349 -705 349 C-705 348.01 -705 347.02 -705 346 C-703.68 346.33 -702.36 346.66 -701 347 C-701 346.01 -701 345.02 -701 344 C-699.68 344 -698.36 344 -697 344 C-697 343.34 -697 342.68 -697 342 C-694.69 342 -692.38 342 -690 342 C-690 341.34 -690 340.68 -690 340 C-689.34 340 -688.68 340 -688 340 C-688 339.34 -688 338.68 -688 338 C-685.03 337.34 -682.06 336.68 -679 336 C-679 335.01 -679 334.02 -679 333 C-678.236875 333.0825 -677.47375 333.165 -676.6875 333.25 C-675.800625 333.1675 -674.91375 333.085 -674 333 C-673.54625 332.34 -673.0925 331.68 -672.625 331 C-672.08875 330.34 -671.5525 329.68 -671 329 C-667.3125 328.75 -667.3125 328.75 -664 329 C-664 328.34 -664 327.68 -664 327 C-663.34 327 -662.68 327 -662 327 C-662 326.34 -662 325.68 -662 325 C-659.69 325 -657.38 325 -655 325 C-655 324.34 -655 323.68 -655 323 C-654.34 323 -653.68 323 -653 323 C-653 322.01 -653 321.02 -653 320 C-651.02 320 -649.04 320 -647 320 C-647 319.34 -647 318.68 -647 318 C-646.01 318 -645.02 318 -644 318 C-644 317.34 -644 316.68 -644 316 C-642.68 316 -641.36 316 -640 316 C-640 315.34 -640 314.68 -640 314 C-638.68 314 -637.36 314 -636 314 C-636 313.34 -636 312.68 -636 312 C-634.35 312 -632.7 312 -631 312 C-631 311.01 -631 310.02 -631 309 C-630.01 309 -629.02 309 -628 309 C-627.67 308.34 -627.34 307.68 -627 307 C-624.69 307 -622.38 307 -620 307 C-620 306.34 -620 305.68 -620 305 C-619.34 305 -618.68 305 -618 305 C-618 304.34 -618 303.68 -618 303 C-616.02 303 -614.04 303 -612 303 C-612 302.34 -612 301.68 -612 301 C-611.34 301 -610.68 301 -610 301 C-609.67 300.01 -609.34 299.02 -609 298 C-607.02 298.33 -605.04 298.66 -603 299 C-603 298.34 -603 297.68 -603 297 C-602.34 297 -601.68 297 -601 297 C-601 296.01 -601 295.02 -601 294 C-598.69 294 -596.38 294 -594 294 C-594 293.34 -594 292.68 -594 292 C-593.34 292 -592.68 292 -592 292 C-592 291.34 -592 290.68 -592 290 C-590.02 290 -588.04 290 -586 290 C-586 289.34 -586 288.68 -586 288 C-585.01 288 -584.02 288 -583 288 C-583 287.01 -583 286.02 -583 285 C-582.236875 285.020625 -581.47375 285.04125 -580.6875 285.0625 C-577.89814214 285.12942841 -577.89814214 285.12942841 -575 284 C-575 283.01 -575 282.02 -575 281 C-573.35 281 -571.7 281 -570 281 C-570 280.34 -570 279.68 -570 279 C-568.68 279 -567.36 279 -566 279 C-566 278.34 -566 277.68 -566 277 C-564.68 277 -563.36 277 -562 277 C-561.67 276.01 -561.34 275.02 -561 274 C-559.68 274.33 -558.36 274.66 -557 275 C-557 274.01 -557 273.02 -557 272 C-555.35 272 -553.7 272 -552 272 C-551.67 271.34 -551.34 270.68 -551 270 C-550.34 270 -549.68 270 -549 270 C-549 269.34 -549 268.68 -549 268 C-546.69 268 -544.38 268 -542 268 C-542 267.34 -542 266.68 -542 266 C-541.34 266 -540.68 266 -540 266 C-540 265.34 -540 264.68 -540 264 C-537.69 264 -535.38 264 -533 264 C-533 263.34 -533 262.68 -533 262 C-532.34 262 -531.68 262 -531 262 C-531 261.01 -531 260.02 -531 259 C-529.02 259 -527.04 259 -525 259 C-525 258.34 -525 257.68 -525 257 C-524.01 257 -523.02 257 -522 257 C-522 256.34 -522 255.68 -522 255 C-520.02 255 -518.04 255 -516 255 C-516 254.34 -516 253.68 -516 253 C-515.34 253 -514.68 253 -514 253 C-514 252.34 -514 251.68 -514 251 C-511.69 251 -509.38 251 -507 251 C-507 250.34 -507 249.68 -507 249 C-506.34 249 -505.68 249 -505 249 C-505 248.01 -505 247.02 -505 246 C-503.68 246 -502.36 246 -501 246 C-501 245.34 -501 244.68 -501 244 C-499.35 244 -497.7 244 -496 244 C-496 243.34 -496 242.68 -496 242 C-494.68 242 -493.36 242 -492 242 C-492 241.34 -492 240.68 -492 240 C-490.68 240 -489.36 240 -488 240 C-487.67 239.01 -487.34 238.02 -487 237 C-485.02 237.33 -483.04 237.66 -481 238 C-481 237.34 -481 236.68 -481 236 C-480.34 236 -479.68 236 -479 236 C-479 235.01 -479 234.02 -479 233 C-476.69 233 -474.38 233 -472 233 C-472 232.34 -472 231.68 -472 231 C-471.34 231 -470.68 231 -470 231 C-470 230.34 -470 229.68 -470 229 C-468.68 229 -467.36 229 -466 229 C-466 228.34 -466 227.68 -466 227 C-464.35 227 -462.7 227 -461 227 C-461 226.01 -461 225.02 -461 224 C-460.236875 224.020625 -459.47375 224.04125 -458.6875 224.0625 C-455.89814214 224.12942841 -455.89814214 224.12942841 -453 223 C-453 222.01 -453 221.02 -453 220 C-450.69 220 -448.38 220 -446 220 C-446 219.34 -446 218.68 -446 218 C-445.34 218 -444.68 218 -444 218 C-444 217.34 -444 216.68 -444 216 C-441.69 216 -439.38 216 -437 216 C-437 215.34 -437 214.68 -437 214 C-436.34 214 -435.68 214 -435 214 C-435 213.01 -435 212.02 -435 211 C-434.01 211 -433.02 211 -432 211 C-431.67 210.34 -431.34 209.68 -431 209 C-429.68 209 -428.36 209 -427 209 C-427 208.34 -427 207.68 -427 207 C-425.35 207 -423.7 207 -422 207 C-422 206.34 -422 205.68 -422 205 C-420.68 205 -419.36 205 -418 205 C-418 204.34 -418 203.68 -418 203 C-415.69 203 -413.38 203 -411 203 C-411 202.34 -411 201.68 -411 201 C-410.34 201 -409.68 201 -409 201 C-409 200.01 -409 199.02 -409 198 C-407.68 198 -406.36 198 -405 198 C-405 197.34 -405 196.68 -405 196 C-403.35 196 -401.7 196 -400 196 C-400 195.34 -400 194.68 -400 194 C-398.68 194 -397.36 194 -396 194 C-396 193.34 -396 192.68 -396 192 C-394.68 192 -393.36 192 -392 192 C-392 191.34 -392 190.68 -392 190 C-390.35 190 -388.7 190 -387 190 C-387 189.01 -387 188.02 -387 187 C-386.01 187 -385.02 187 -384 187 C-383.67 186.34 -383.34 185.68 -383 185 C-380.69 185 -378.38 185 -376 185 C-376 184.34 -376 183.68 -376 183 C-375.34 183 -374.68 183 -374 183 C-374 182.34 -374 181.68 -374 181 C-372.68 181 -371.36 181 -370 181 C-370 180.34 -370 179.68 -370 179 C-368.68 179 -367.36 179 -366 179 C-365.67 178.01 -365.34 177.02 -365 176 C-363.68 176.33 -362.36 176.66 -361 177 C-361 176.01 -361 175.02 -361 174 C-359.68 174 -358.36 174 -357 174 C-357 173.34 -357 172.68 -357 172 C-355.35 172 -353.7 172 -352 172 C-352 171.34 -352 170.68 -352 170 C-350.68 170 -349.36 170 -348 170 C-348 169.34 -348 168.68 -348 168 C-346.68 168 -345.36 168 -344 168 C-344 167.34 -344 166.68 -344 166 C-342.35 166 -340.7 166 -339 166 C-339 165.01 -339 164.02 -339 163 C-337.68 163.33 -336.36 163.66 -335 164 C-335 163.01 -335 162.02 -335 161 C-333.68 161 -332.36 161 -331 161 C-331 160.34 -331 159.68 -331 159 C-329.35 159 -327.7 159 -326 159 C-326 158.34 -326 157.68 -326 157 C-324.68 157 -323.36 157 -322 157 C-322 156.34 -322 155.68 -322 155 C-320.68 155 -319.36 155 -318 155 C-317.67 154.01 -317.34 153.02 -317 152 C-315.68 152.33 -314.36 152.66 -313 153 C-313 152.01 -313 151.02 -313 150 C-312.01 150 -311.02 150 -310 150 C-309.67 149.34 -309.34 148.68 -309 148 C-307.68 148 -306.36 148 -305 148 C-305 147.34 -305 146.68 -305 146 C-303.35 146 -301.7 146 -300 146 C-300 145.34 -300 144.68 -300 144 C-298.68 144 -297.36 144 -296 144 C-296 143.34 -296 142.68 -296 142 C-294.35 142 -292.7 142 -291 142 C-291 141.01 -291 140.02 -291 139 C-289.68 139.33 -288.36 139.66 -287 140 C-287 139.01 -287 138.02 -287 137 C-285.68 137 -284.36 137 -283 137 C-283 136.34 -283 135.68 -283 135 C-281.35 135 -279.7 135 -278 135 C-278 134.34 -278 133.68 -278 133 C-276.68 133 -275.36 133 -274 133 C-274 132.34 -274 131.68 -274 131 C-272.68 131 -271.36 131 -270 131 C-269.67 130.01 -269.34 129.02 -269 128 C-267.68 128.33 -266.36 128.66 -265 129 C-265 128.01 -265 127.02 -265 126 C-264.01 126 -263.02 126 -262 126 C-261.67 125.34 -261.34 124.68 -261 124 C-259.68 124 -258.36 124 -257 124 C-257 123.34 -257 122.68 -257 122 C-255.35 122 -253.7 122 -252 122 C-252 121.34 -252 120.68 -252 120 C-250.68 120 -249.36 120 -248 120 C-248 119.34 -248 118.68 -248 118 C-246.68 118 -245.36 118 -244 118 C-243.67 117.01 -243.34 116.02 -243 115 C-241.68 115.33 -240.36 115.66 -239 116 C-239 115.01 -239 114.02 -239 113 C-237.68 113 -236.36 113 -235 113 C-235 112.34 -235 111.68 -235 111 C-233.35 111 -231.7 111 -230 111 C-230 110.34 -230 109.68 -230 109 C-228.02 109 -226.04 109 -224 109 C-224 108.34 -224 107.68 -224 107 C-223.34 107 -222.68 107 -222 107 C-222 106.34 -222 105.68 -222 105 C-220.35 105 -218.7 105 -217 105 C-217 104.01 -217 103.02 -217 102 C-215.68 102.33 -214.36 102.66 -213 103 C-213 102.01 -213 101.02 -213 100 C-211.68 100 -210.36 100 -209 100 C-209 99.34 -209 98.68 -209 98 C-207.35 98 -205.7 98 -204 98 C-204 97.34 -204 96.68 -204 96 C-202.68 96 -201.36 96 -200 96 C-200 95.34 -200 94.68 -200 94 C-198.68 94 -197.36 94 -196 94 C-195.67 93.01 -195.34 92.02 -195 91 C-193.68 91.33 -192.36 91.66 -191 92 C-191 91.01 -191 90.02 -191 89 C-190.01 89 -189.02 89 -188 89 C-187.67 88.34 -187.34 87.68 -187 87 C-185.68 87 -184.36 87 -183 87 C-183 86.34 -183 85.68 -183 85 C-181.35 85 -179.7 85 -178 85 C-178 84.34 -178 83.68 -178 83 C-176.68 83 -175.36 83 -174 83 C-174 82.34 -174 81.68 -174 81 C-172.35 81 -170.7 81 -169 81 C-169 80.01 -169 79.02 -169 78 C-167.68 78.33 -166.36 78.66 -165 79 C-165 78.01 -165 77.02 -165 76 C-163.68 76 -162.36 76 -161 76 C-161 75.34 -161 74.68 -161 74 C-158.69 74 -156.38 74 -154 74 C-154 73.34 -154 72.68 -154 72 C-153.34 72 -152.68 72 -152 72 C-152 71.34 -152 70.68 -152 70 C-150.68 70 -149.36 70 -148 70 C-147.67 69.01 -147.34 68.02 -147 67 C-145.68 67.33 -144.36 67.66 -143 68 C-143 67.01 -143 66.02 -143 65 C-142.01 65 -141.02 65 -140 65 C-139.67 64.34 -139.34 63.68 -139 63 C-137.68 63 -136.36 63 -135 63 C-135 62.34 -135 61.68 -135 61 C-132.69 61 -130.38 61 -128 61 C-128 60.34 -128 59.68 -128 59 C-127.34 59 -126.68 59 -126 59 C-126 58.34 -126 57.68 -126 57 C-124.68 57 -123.36 57 -122 57 C-121.67 56.01 -121.34 55.02 -121 54 C-119.68 54.33 -118.36 54.66 -117 55 C-117 54.01 -117 53.02 -117 52 C-115.68 52 -114.36 52 -113 52 C-113 51.34 -113 50.68 -113 50 C-111.35 50 -109.7 50 -108 50 C-108 49.34 -108 48.68 -108 48 C-106.68 48 -105.36 48 -104 48 C-104 47.34 -104 46.68 -104 46 C-102.68 46 -101.36 46 -100 46 C-100 45.34 -100 44.68 -100 44 C-98.35 44 -96.7 44 -95 44 C-95 43.01 -95 42.02 -95 41 C-94.01 41 -93.02 41 -92 41 C-91.67 40.34 -91.34 39.68 -91 39 C-88.93359375 38.3671875 -88.93359375 38.3671875 -86.4375 37.875 C-85.61121094 37.70742187 -84.78492188 37.53984375 -83.93359375 37.3671875 C-82.97646484 37.18542969 -82.97646484 37.18542969 -82 37 C-82 36.34 -82 35.68 -82 35 C-80.68 35 -79.36 35 -78 35 C-78 34.34 -78 33.68 -78 33 C-75.69 33 -73.38 33 -71 33 C-71 32.34 -71 31.68 -71 31 C-70.34 31 -69.68 31 -69 31 C-69 30.01 -69 29.02 -69 28 C-68.01 28 -67.02 28 -66 28 C-65.67 27.34 -65.34 26.68 -65 26 C-62.69 26 -60.38 26 -58 26 C-58 25.34 -58 24.68 -58 24 C-57.34 24 -56.68 24 -56 24 C-56 23.34 -56 22.68 -56 22 C-54.68 22 -53.36 22 -52 22 C-52 21.34 -52 20.68 -52 20 C-50.35 20 -48.7 20 -47 20 C-47 19.01 -47 18.02 -47 17 C-45.68 17.33 -44.36 17.66 -43 18 C-43 17.01 -43 16.02 -43 15 C-41.68 15 -40.36 15 -39 15 C-39 14.34 -39 13.68 -39 13 C-36.69 13 -34.38 13 -32 13 C-32 12.34 -32 11.68 -32 11 C-31.34 11 -30.68 11 -30 11 C-30 10.34 -30 9.68 -30 9 C-25.545 8.01 -25.545 8.01 -21 7 C-21 6.01 -21 5.02 -21 4 C-20.236875 4.0825 -19.47375 4.165 -18.6875 4.25 C-17.800625 4.1675 -16.91375 4.085 -16 4 C-14.97971135 2.68212715 -13.98028616 1.34789347 -13 0 C-8.64440166 -1.61779367 -4.48236622 -0.68375078 0 0 Z " fill="#009CFF" transform="translate(1005,71)"/>
<path d="M0 0 C1.32 0 2.64 0 4 0 C4 0.66 4 1.32 4 2 C5.32 2 6.64 2 8 2 C8 2.66 8 3.32 8 4 C9.65 4 11.3 4 13 4 C13.33 4.66 13.66 5.32 14 6 C14.99 6 15.98 6 17 6 C17 6.99 17 7.98 17 9 C18.32 8.67 19.64 8.34 21 8 C21.33 8.99 21.66 9.98 22 11 C23.32 11 24.64 11 26 11 C26 11.66 26 12.32 26 13 C27.32 13 28.64 13 30 13 C30 13.66 30 14.32 30 15 C31.65 15 33.3 15 35 15 C35 15.66 35 16.32 35 17 C36.32 17 37.64 17 39 17 C39 17.99 39 18.98 39 20 C40.98 19.505 40.98 19.505 43 19 C43 19.99 43 20.98 43 22 C44.65 22 46.3 22 48 22 C48 22.66 48 23.32 48 24 C49.32 24 50.64 24 52 24 C52 24.66 52 25.32 52 26 C53.32 26 54.64 26 56 26 C56 26.66 56 27.32 56 28 C57.65 28 59.3 28 61 28 C61 28.66 61 29.32 61 30 C62.32 30 63.64 30 65 30 C65 30.99 65 31.98 65 33 C66.32 32.67 67.64 32.34 69 32 C69 32.99 69 33.98 69 35 C70.65 35 72.3 35 74 35 C74 35.66 74 36.32 74 37 C75.98 37 77.96 37 80 37 C80 37.66 80 38.32 80 39 C81.134375 39.28875 82.26875 39.5775 83.4375 39.875 C84.613125 40.24625 85.78875 40.6175 87 41 C87.33 41.66 87.66 42.32 88 43 C88.99 43 89.98 43 91 43 C91 43.99 91 44.98 91 46 C92.65 46 94.3 46 96 46 C96 46.66 96 47.32 96 48 C97.32 48 98.64 48 100 48 C100 48.66 100 49.32 100 50 C101.32 50 102.64 50 104 50 C104 50.66 104 51.32 104 52 C105.65 52 107.3 52 109 52 C109.33 52.66 109.66 53.32 110 54 C110.99 54 111.98 54 113 54 C113 54.99 113 55.98 113 57 C114.32 56.67 115.64 56.34 117 56 C117 56.99 117 57.98 117 59 C118.65 59 120.3 59 122 59 C122 59.66 122 60.32 122 61 C123.32 61 124.64 61 126 61 C126 61.66 126 62.32 126 63 C127.32 63 128.64 63 130 63 C130 360.66 130 658.32 130 965 C129.34 965 128.68 965 128 965 C128 965.66 128 966.32 128 967 C126.68 967 125.36 967 124 967 C124 967.66 124 968.32 124 969 C122.68 969 121.36 969 120 969 C120 969.66 120 970.32 120 971 C119.01 971 118.02 971 117 971 C117 971.99 117 972.98 117 974 C115.35 974 113.7 974 112 974 C111.67 974.66 111.34 975.32 111 976 C110.34 976 109.68 976 109 976 C109 976.66 109 977.32 109 978 C107.35 978 105.7 978 104 978 C104 978.66 104 979.32 104 980 C102.68 980 101.36 980 100 980 C100 980.66 100 981.32 100 982 C98.68 982 97.36 982 96 982 C96 982.66 96 983.32 96 984 C95.01 984 94.02 984 93 984 C93 984.99 93 985.98 93 987 C91.35 987 89.7 987 88 987 C87.67 987.66 87.34 988.32 87 989 C86.34 989 85.68 989 85 989 C85 989.66 85 990.32 85 991 C82.69 991 80.38 991 78 991 C78 991.66 78 992.32 78 993 C77.34 993 76.68 993 76 993 C76 993.66 76 994.32 76 995 C73.69 995 71.38 995 69 995 C69 995.66 69 996.32 69 997 C68.34 997 67.68 997 67 997 C67 997.99 67 998.98 67 1000 C65.68 1000 64.36 1000 63 1000 C63 1000.66 63 1001.32 63 1002 C62.34 1002 61.68 1002 61 1002 C61 1002.66 61 1003.32 61 1004 C58.69 1004 56.38 1004 54 1004 C54 1004.66 54 1005.32 54 1006 C52.68 1006 51.36 1006 50 1006 C49.67 1006.99 49.34 1007.98 49 1009 C47.66923011 1009.34342449 46.33568021 1009.67619874 45 1010 C44.34 1010.99 43.68 1011.98 43 1013 C41.68 1013 40.36 1013 39 1013 C39 1013.66 39 1014.32 39 1015 C37.68 1015 36.36 1015 35 1015 C35 1015.66 35 1016.32 35 1017 C33.35 1017 31.7 1017 30 1017 C30 1017.66 30 1018.32 30 1019 C28.68 1019 27.36 1019 26 1019 C26 1019.99 26 1020.98 26 1022 C23.01758453 1022.77321882 20.02419525 1023.41196203 17 1024 C17 1024.66 17 1025.32 17 1026 C15.68 1026 14.36 1026 13 1026 C13 1026.66 13 1027.32 13 1028 C12.34 1028 11.68 1028 11 1028 C11 1028.66 11 1029.32 11 1030 C9.27185839 1030.19672365 7.54240803 1030.38196799 5.8125 1030.5625 C4.84957031 1030.66691406 3.88664063 1030.77132813 2.89453125 1030.87890625 C0.05766623 1030.99758751 -2.25423671 1030.67765639 -5 1030 C-5 1029.34 -5 1028.68 -5 1028 C-6.32 1028 -7.64 1028 -9 1028 C-9 1027.34 -9 1026.68 -9 1026 C-10.32 1026 -11.64 1026 -13 1026 C-13.639375 1025.34 -14.27875 1024.68 -14.9375 1024 C-16.85353411 1021.72296836 -16.85353411 1021.72296836 -19.75 1021.75 C-20.4925 1021.8325 -21.235 1021.915 -22 1022 C-22 1021.01 -22 1020.02 -22 1019 C-22.66 1019 -23.32 1019 -24 1019 C-24 1018.34 -24 1017.68 -24 1017 C-25.65 1017 -27.3 1017 -29 1017 C-29 1016.34 -29 1015.68 -29 1015 C-30.32 1015 -31.64 1015 -33 1015 C-33 1014.34 -33 1013.68 -33 1013 C-34.32 1013 -35.64 1013 -37 1013 C-37 1012.34 -37 1011.68 -37 1011 C-38.65 1011 -40.3 1011 -42 1011 C-42 1010.01 -42 1009.02 -42 1008 C-42.99 1008.33 -43.98 1008.66 -45 1009 C-45.495 1007.515 -45.495 1007.515 -46 1006 C-47.32 1006 -48.64 1006 -50 1006 C-50 1005.34 -50 1004.68 -50 1004 C-51.65 1004 -53.3 1004 -55 1004 C-55 1003.34 -55 1002.68 -55 1002 C-56.32 1002 -57.64 1002 -59 1002 C-59 1001.34 -59 1000.68 -59 1000 C-60.32 1000 -61.64 1000 -63 1000 C-64.75 998.625 -64.75 998.625 -66 997 C-66 996.34 -66 995.68 -66 995 C-67.98 995 -69.96 995 -72 995 C-72 994.34 -72 993.68 -72 993 C-72.66 993 -73.32 993 -74 993 C-74 992.34 -74 991.68 -74 991 C-75.65 991 -77.3 991 -79 991 C-79 990.34 -79 989.68 -79 989 C-80.32 989 -81.64 989 -83 989 C-83 988.34 -83 987.68 -83 987 C-84.32 987 -85.64 987 -87 987 C-87 986.01 -87 985.02 -87 984 C-87.99 984 -88.98 984 -90 984 C-90 983.34 -90 982.68 -90 982 C-91.98 982 -93.96 982 -96 982 C-96 981.34 -96 980.68 -96 980 C-96.66 980 -97.32 980 -98 980 C-98 979.34 -98 978.68 -98 978 C-100.31 978 -102.62 978 -105 978 C-105 977.34 -105 976.68 -105 976 C-105.66 976 -106.32 976 -107 976 C-107.33 975.34 -107.66 974.68 -108 974 C-109.65 974 -111.3 974 -113 974 C-113.495 972.515 -113.495 972.515 -114 971 C-114.66 971 -115.32 971 -116 971 C-116 970.34 -116 969.68 -116 969 C-117.32 969 -118.64 969 -120 969 C-120 968.34 -120 967.68 -120 967 C-120.66 967 -121.32 967 -122 967 C-122 966.34 -122 965.68 -122 965 C-122.66 965 -123.32 965 -124 965 C-125.60149703 963.88214511 -125.60149703 963.88214511 -127 962 C-127.3754315 959.27031451 -127.3754315 959.27031451 -127.37604749 955.88567829 C-127.38355805 954.59536327 -127.3910686 953.30504826 -127.39880675 951.97563279 C-127.39197557 950.53244472 -127.38487096 949.08925792 -127.37752342 947.64607239 C-127.38065048 946.11541716 -127.38509246 944.58476415 -127.39073652 943.05411613 C-127.40249082 938.81810061 -127.39539138 934.58228837 -127.38540266 930.34627591 C-127.37782994 925.74916566 -127.38755737 921.1520879 -127.39513266 916.55498219 C-127.40599915 908.48809874 -127.40561984 900.42127546 -127.39799118 892.35438919 C-127.38667804 880.35897188 -127.39242702 868.36360564 -127.4016161 856.36818871 C-127.41744275 834.94865299 -127.41603247 813.52914405 -127.40737936 792.10960576 C-127.39984389 773.3654362 -127.39785736 754.62127648 -127.4014473 735.87710571 C-127.40167645 734.63558059 -127.40190561 733.39405547 -127.40214171 732.11490837 C-127.40307566 727.07563125 -127.40403086 722.03635412 -127.405021 716.99707701 C-127.41185233 681.81050425 -127.41304487 646.62393451 -127.40183067 611.43736267 C-127.40161993 610.77383664 -127.40140918 610.11031061 -127.40119205 609.42667773 C-127.397757 598.65071378 -127.3940987 587.87474991 -127.39042152 577.09878604 C-127.37585196 534.35718907 -127.37652818 491.61562029 -127.39111328 448.87402344 C-127.3947767 438.10356143 -127.39840979 427.33309942 -127.40183067 416.56263733 C-127.40204202 415.89950565 -127.40225336 415.23637398 -127.40247111 414.5531474 C-127.41379636 378.77335873 -127.41130666 342.9935717 -127.40427649 307.21378231 C-127.40331428 302.18348631 -127.40237577 297.1531903 -127.4014473 292.12289429 C-127.40121006 290.88423323 -127.40097283 289.64557217 -127.40072841 288.36937592 C-127.39731056 269.63326023 -127.4013169 250.89715544 -127.40888596 232.16104126 C-127.41744596 210.86529306 -127.41535731 189.56957592 -127.39904372 168.27383161 C-127.39020688 156.34343881 -127.38969997 144.41311322 -127.40098225 132.48272211 C-127.40767884 124.52652924 -127.40357845 116.57039057 -127.39046794 108.61420577 C-127.38329033 104.07246995 -127.38097627 99.53086822 -127.39168589 94.98913634 C-127.40131334 90.86453256 -127.39735275 86.74018291 -127.38214391 82.61559798 C-127.37910054 81.12590946 -127.38117751 79.63620031 -127.38876172 78.14652799 C-127.39827924 76.13581062 -127.38775124 74.12502754 -127.37604749 72.11432171 C-127.37584421 70.99739175 -127.37564094 69.8804618 -127.3754315 68.72968549 C-127 66 -127 66 -125.72649703 64.11785489 C-124 63 -124 63 -120 63 C-120 62.34 -120 61.68 -120 61 C-118.68 61 -117.36 61 -116 61 C-116 60.34 -116 59.68 -116 59 C-114.35 59 -112.7 59 -111 59 C-111 58.34 -111 57.68 -111 57 C-110.34 57 -109.68 57 -109 57 C-109 56.01 -109 55.02 -109 54 C-107.02 54 -105.04 54 -103 54 C-103 53.34 -103 52.68 -103 52 C-101.35 52 -99.7 52 -98 52 C-98 51.34 -98 50.68 -98 50 C-96.68 50 -95.36 50 -94 50 C-94 49.34 -94 48.68 -94 48 C-93.34 48 -92.68 48 -92 48 C-92 47.34 -92 46.68 -92 46 C-89.69 46 -87.38 46 -85 46 C-85 45.34 -85 44.68 -85 44 C-84.34 44 -83.68 44 -83 44 C-83 43.01 -83 42.02 -83 41 C-80.03 40.34 -77.06 39.68 -74 39 C-74 38.34 -74 37.68 -74 37 C-72.02 37 -70.04 37 -68 37 C-68 36.34 -68 35.68 -68 35 C-66.35 35 -64.7 35 -63 35 C-63 34.01 -63 33.02 -63 32 C-61.02 32.495 -61.02 32.495 -59 33 C-59 32.34 -59 31.68 -59 31 C-58.34 31 -57.68 31 -57 31 C-57 30.01 -57 29.02 -57 28 C-54.69 28 -52.38 28 -50 28 C-50 27.34 -50 26.68 -50 26 C-49.34 26 -48.68 26 -48 26 C-48 25.34 -48 24.68 -48 24 C-46.02 24 -44.04 24 -42 24 C-42 23.34 -42 22.68 -42 22 C-41.01 22 -40.02 22 -39 22 C-39 21.01 -39 20.02 -39 19 C-37.35 19 -35.7 19 -34 19 C-33.67 18.34 -33.34 17.68 -33 17 C-31.68 17 -30.36 17 -29 17 C-29 16.34 -29 15.68 -29 15 C-27.35 15 -25.7 15 -24 15 C-24 14.34 -24 13.68 -24 13 C-23.34 13 -22.68 13 -22 13 C-22 12.34 -22 11.68 -22 11 C-19.03 10.34 -16.06 9.68 -13 9 C-13 8.01 -13 7.02 -13 6 C-12.01 6 -11.02 6 -10 6 C-9.67 5.34 -9.34 4.68 -9 4 C-7.68 4 -6.36 4 -5 4 C-5 3.34 -5 2.68 -5 2 C-3.35 2 -1.7 2 0 2 C0 1.34 0 0.68 0 0 Z " fill="#090E1F" transform="translate(997,934)"/>
</svg>
